<?xml version="1.0"?>
    
<!--********* Copyright (c) 2024 Pareto Softare, LLC DBA Simplemaps.com ***************************************
************* Free for Commercial Use, full terms at  https://simplemaps.com/resources/svg-license ************
************* Attribution is appreciated! https://simplemaps.com *******************************************-->

<svg baseprofile="tiny" fill="#6f9c76" height="1000" stroke="#ffffff" stroke-linecap="round" stroke-linejoin="round" stroke-width=".5" version="1.2" viewbox="0 0 1000 1000" width="1000" xmlns="http://www.w3.org/2000/svg">
 <g id="features">
  <path d="M713.9 833.9l-0.4-0.2-0.8-1-0.4-1.1-0.4-2.3-0.7-1.4-0.2-0.5-0.2-2-0.3-0.2-0.5-0.1-1-0.4-0.4-0.1-0.2-0.2-0.1-0.6 0.1-0.6 0.2-0.6 0.3-0.5 0.3-0.2 0.4-0.6 0.3-2.7 0.3-0.8 0.5-0.2 0.4 0.2 0.3 0.3 0.2 0.5 0.9 0.8 0.9 0.7 0.8 0.8 0.3 1.2-0.3 6.9 0.1 1.2 0.4 0.8 0.1 0.5-0.2 0.5-0.3 0.7-0.4 1.2z m-25.2 70.7l0.3-0.2 1.9-1 0.8-0.6 0.1 0 0.7-0.9 4.6-10.6 0.2-0.2 0.4 0 0.3-0.1 0-0.4-0.1-0.5-0.1-2.8 0.1-0.5 1.7-5.2 0-1 0.3-0.2 0.2-0.3 0.2-0.3 0.1-0.4 0.3-1.5 0-0.7-0.2-0.5-0.3-0.4-0.4-0.5-0.4-0.6 0-0.4 0-0.6-0.1-1.1 0-0.6 0.1-0.7 0.3-0.7 0-0.6-1.2-1.9-1.3-2.5-1-0.9-0.5-0.1-0.6 0-0.5 0.1-1 0.5-0.4-0.3-0.5-0.3-1.2 0.1-2.5-0.4-1.4 0.2-0.5-0.1-0.7-0.2-0.8-0.5-1.8-1.8-0.7-0.5-1.3-0.7-0.5-0.3 0-1.1 0-0.3-0.3-0.2-0.5-0.2-0.4-0.1-0.2-0.1-0.1-0.2 0-0.4 0.2-0.4 0.4-0.3 0.4-0.5 0.3-1.3 0.2-2.8 0.5-1.2 0.9-5.4-0.1-0.8-0.4-0.9-1.3-1.5-0.3-0.7-0.3-2.5 0.9-3.4 5.5-6 0-2.5 0.2-0.2 0.3-0.2 1.3-0.4 0.3-0.2 0.1 0 0.3-0.4-0.1-0.2-0.2-0.2-0.2-0.7-0.2-3.1-0.3-0.9-0.7-0.7-1.9-1.1-0.7-0.7-0.7-0.8 0.1-0.3 0.6-1.4 0.6-0.9 0.2-0.4 0.1-1-0.4-2.4-0.1-1.9-0.3-1.4 0-0.8 0.4-2.8 1.7-5.7 0.1-0.7-0.2-0.6-0.5-0.6 0.1-0.5 0.4 0 0.4-0.2 0.2-0.3 0.2-0.4 0.2-1.2 0.4-1 0.3-1-0.1-1.3 0.7 0.3 0.5-0.1 0.6-0.1 0.6 0 0.6 0.1 1.5 0.4 0.7 0.1 1.1-0.8 0.7-1.5 0.4-1.7 0.1-2.1 0-0.7-0.2-0.7-0.7-1.8-0.2-0.8-0.3-1.8-0.4-1.6-1.9-4.4 0-0.1 16.1 0.1 27.2 0.1 5.8 0 0.5 1.5 0.7 1.5 1.2 1.1 1.5 0.7 1.1 0.4-0.1 0.7 0.5 1.5 0.8 1.4 1 0.9 1.6 1 0.2 0.3 0.2 0.6 1.3 1.8 1.3 0.8 2.7 0.3 1.2 0.4-0.4 1.2-0.2 1.2-0.2 2.6 0.3 1.3 1 2.7 0.4 2.5 0.4 1.2 0 1.1-0.6 1.1-0.6 0.4-0.6 0.2-0.4 0.4-0.2 0.8 0.2 0.2 1.2 0.9-0.4 1.3-0.1 2.5-0.6 1 0.5 0.3 1.7 1 0.4 0-0.3 1.1-1.3 1.6-0.2 1-0.2 0.4-0.4 0.2-0.5 0.1-0.4 0.2-0.3 0.5-1.1 2.9-0.3 0.6-1.8 1.6-0.8 1.2-0.4 1.5-0.1 1.9-0.8 1.1-1.8 0.2-2.1-0.4-1.6-0.7-1.3 1.2-0.8 1.6-0.3 1.6-0.1 1.4 0.3 0.6 1.4 1.2 0.5 0.5 0.2 0.9 0.1 1.1-0.1 1-0.4 0.4-1.6-0.6-1-1.5-1.2-3.5-1.4-1.5-1.6-0.8-1.1 0.4 0 2.3-0.3 0-0.2-0.3-0.6-0.8-0.2 1.1 0.6 1.2 0.7 1.1 0.8 1.9 1 0.9 1 0.7 0.6 0.5 0.1 1.2-0.7 2.2-0.8 4.7-0.1 8-0.9 4.2-0.2 4.9-0.4 0.9-0.7-0.2-0.2-0.8-0.3-2.7-0.1-0.6-1.8-1.3-0.2-0.5-0.1-0.6 0.1-0.7 0-0.6-1.3-2.5-0.7-0.9-0.3-1.1-0.7-6.7 0.1-1.3 0.7-3.4-0.1-1.1-0.5-2-0.2-1.1 0-1.5-0.2-0.6-0.6-0.3-1.4-0.4-1-0.6-2.1-2.9-0.3-1 0.4-2.5 0.1-1.1-0.6-1.2-1.1-1.1-2.2-2-0.6-0.9-0.3-0.8-0.3-2.2-2.2-5.2 0-2.2 0.1-1.2 0-1.1-0.4-0.7-0.8-0.2-0.3-0.1-0.9 0.2-3.3 2.4-3.1 1.8-0.6 0.5-0.5 0.4-0.6 1.1-0.1 1.2 0.2 3.5 0 1.1-0.2 0.5-0.5 0.7-0.1 0.5-0.2 0.5-2 1.9-1.5 0.8-1.8 0.4-1.7 0.9-1.2 1.9-0.1 2.4-0.2 1.2-0.6 0.5-2.4 2.9-1.2 2.1-0.8 2.3-0.4 2.5-0.2 2.6 0.2 0.9 0.7 2.1 0.2 1.1 0.4 0.5 0.9 0.4 0.7-0.4-0.1-1.5 1.7 1.2 2.3 3 1.4 1.4 1.1-0.6 1 0.4 0.9 0.9 0.4 1 0 2.1 0.2 0.8 1.6 3.3 0.6 0.8 0.2 0.4 0 0.6-0.1 1.2 0.1 0.6 0.2 0.4 0.5 0.7 2.6 7 0.2 0.9 0 1.2-0.2 1.1-0.6 1-0.2 0.6 0.4 1.1-0.2 0.5-0.2 0.5-0.4 1.6-0.9 2.2-3.9 4.8-5.2 7.3-3.3 5.9-0.8 1-1 0.9-0.8 0.4-0.9 0.1-2.6-0.2-0.8-0.2-0.1-0.2z m6 11.6l-0.3 0-0.7-0.2-1 0.1-0.9 0.2-0.7-0.3-0.4-0.5-0.5-0.3 0-0.3 0.4-0.4 0.9-1.2 1-0.5 1.5 0 0.7 0.3 0.2 0.3 0.2 0.7-0.1 1.6-0.3 0.5z" id="PH11" name="Davao">
  </path>
  <path d="M746.5 779.6l-1.1-0.4-1.5-0.7-1.2-1.1-0.7-1.5-0.5-1.5-5.8 0-27.2-0.1-16.1-0.1-0.5-1.5-0.3-5.3-0.4-1.2-1.3-2.3-0.2-1.3 0.1-1.1 0.2-0.9 0.1-0.9-0.3-1.1-0.7-2-0.1-1.9 0.1-1.9-0.5-2.6 0.9-8-0.2-4.7-1.3-3.4-0.1-2.4 1.7-5.6-2.5-3.2-2.3-2.3-0.2-1.2-0.4-0.5-0.4-0.3-0.4-0.4-0.1-0.6 0-1.3 0-0.6-0.1-0.2 0.3-0.3 0.5-0.1 0.5 0.5 0.6 1.3 1.6 2.2 1.1 0.8 1.2 0.3 3.5 0.2 2.3 0.5 1.1 0.1 1.2-0.3 2.9-1.6 0.5-0.6 0.4-1.2 0.4-1.9 0-5.8-0.1-0.9-0.3-0.6-0.4-0.5-0.3-0.7 0-0.5 0.1-0.9-0.1-0.5-0.1-0.5-0.5-1.1-0.3-1.4-1.1-1.7-0.3-1.6-0.3-0.4-0.2-0.3-0.1-0.3 0-1.6-0.1-0.3-0.1-0.8-1.2-3.1-0.1-0.5-0.2-1.1-1.9-7.4-0.1-1 0.2-1 0.3-0.8 2.6-4.4 0.2-0.5 0.7 0.8 0.9 0.8 1 0.7 1.8 0.5 1.5 0.8 1.1 0.1-0.3 1.3 0.5 1.6 0.6 1.5 0.3 1.4 0.5 1 1.3 1 1.5 0.6 1.1-0.2-0.1 0.2 0 0.2-0.1 0.2-0.2 0.2 0.7 0 0.4 0.2 0.4 0.5 0.5 0.1 1.2-0.1 0.5 0 1 1.2 0.5 0.3 0.5 0.2 3.1 0.4 1 0.6 1.8 1.6 0.5 0.2 0.7 0 0.6 0.1 0.2 0.4 0.1 0.5 0.5 0.7 0.2 0.5 0.5-1 0.2-0.5 0.3 0 0 0.9 0 0.6-0.2 0.3-0.5 0.5-0.6 0.2-1.5 0.4-0.4 0.5-0.1 0.7 0.3 0.5 0.6 0.4 0.6 0.2 0.9 0.2 0.6-0.2 1.5-0.7-0.1 2.2 0.2 1.8 0.8 1.7 2.5 2.6 0.4 0.2 0.6 0.1 0.7-0.1 1.1-0.5 1.8-0.6 1.9-1.9 1.1-0.6 1.1 0.1 0.2 0.8-0.2 1-1.1 1.8-0.3 1.3-0.4 2.4 0 1.8-0.4 2.5 0.2 0.6 0.6 0.2 0.7 0.1 0.5 0.2 0.4 0.4 0.5 1.4 0.4 0.6 3.9 3.9 0.5 1.1 0.1 0.7 0.6 2.1-0.2 0.8 0 0.5 0.7 0.4-0.1 0.4-0.3 0.4-0.1 0.1-0.4 1.3-0.6 1.3-0.9 1.1-1.2 0.4-2 1.4-0.3 0.1 0 0.8 0.4 0.4 1 0.7 0 0.3-0.2 0.1 0 0.1-0.1 0.2-0.7-0.3-0.6-0.1-1.1 0-0.7 0.2-1.3 1.1-1.9 0.8-1 1.3-0.5 1.2 1.1 1.2 0.9 2.4 0.6 0.7 0.5 0.1 1.7-0.1 1.1 0.4 0.5 0 0.6-0.4-1.1-0.7-0.3-0.4 0.3-0.4 0.6 0.1 0.7 0.3 0.7 0.1 0.6-0.5 1.2 0.6 3.5 0.6 0-0.1 0.2-0.2 0.2-0.1 0.3 0 0 0.1 0.2 0.5 0.4 0.7 1.1 0.8 0.2 0.5-0.4 0.8 0.3 0.1 0.2 0.3 0.3 0.3-1.5-0.1-0.5 0.2-0.3 0.4-0.1 1.3 0.1 0.3 0.8-0.3 0.2 0.9-0.4 1.1-1.3 1.7-0.2 0.1-0.6 0.4-0.5 0.4 0.4 0.2 0.2 0.3 0.7 1.4 0.5 0.4 0.8 0.2 0.4 0.5-0.6 1.3-1.7 2-0.3 0.9 0.4 1 0.8 0.5 0.8-0.2 0.9-0.5 1.6-0.6 1.9-1.6 0.2 0.6-0.3 4.6-0.2 0.8 0.1 0.8 0.6 1.1-1.3 0.7-0.6 2 0.2 2.1 1 1.4-1 1-2.1 1.5-0.6 1.2 0 0.7z m-20.7-95.3l-1 2.1 0.3 0.6 0 0.9-0.3 0.8-0.5 0.3-0.9 0.2-0.3 0 0.3-0.9-0.4-0.3-0.6-0.1-0.5 0 0-0.4 0.5 0 0.2 0 0-0.4-1.1-0.7 0 0.4-0.1-0.5 0-0.6 0.5-1.2 0.2-0.3 0.2-0.2 0.2-0.1 0.1-0.5 0-0.5 0-0.6 0-0.4-0.5-0.8-0.1-1.3 0.4-1.2 1-0.4 0.3 0.3 0.1 0.3-0.1 0.5 0.5-0.2 0.2-0.2 0.1 0.9 0 1.3 0.1 1.1 0.8 0.5 0.6 0.4-0.2 1.2z m9.8-7.9l-0.1 0.7-1.3 0.5-0.9 0.7-0.4 0.3-0.6 0.1-1.4-0.1-2.1-0.8-0.7 0 0.4 1.1-0.8-0.6-0.8-0.9-1.3-1.8 0-0.3 0.1-0.2 0-0.3-0.1-0.3-0.3-0.2-0.5 0-0.4-0.1-0.3-0.5 0.7 0.1 0.7-0.1 0.7-0.2 0.5-0.6-0.6-0.2-0.8-0.5-0.5-0.5 0.2-0.8 3.3-5.3 0.2-0.5 0-0.5-0.1-0.5-0.1-0.5 0.4-0.5 1-0.8 0.5 0.2 2.5 5.5 0.6 2.9 0 0.6-0.3 0.6-0.8 0.7-0.4 0.5 1.1 0.2 0.7 0.2 0.5 0.5 0.7 0.7 0.4 0.6 0.4 0.9z m-25-4.4l-0.8 0.4-1.1-0.2-0.8-0.6-0.2-0.8 0.1-0.9-0.2-1-0.5-0.5-1.5-0.4-0.6-0.6 0.5 0 0.2 0-0.4-0.3-0.2-0.3 0-0.3 0.3-0.3 0-0.3-1.3 0-0.5-0.9 0.1-1.3 0.6-1.2 0.2 0.5 0.4 0.2 0.3-0.2 0.2-0.7-0.2-0.2-0.7-0.9-0.2-0.5-0.4 0-0.3 0.6-0.3 0.1-0.5-0.2-0.5-0.2-0.4 0.3-0.4 0.5-0.5 0.4-0.8 0-0.4-0.6 0-0.8-0.1-0.6-0.8-0.3-0.1-0.3 0.1-1.4-0.1-0.5 0.8-0.4 0.4-1 0.1-1.1-0.2-0.9 0.4-0.2 0.4 0 0.3 0.2 0.3 0.4-0.1-0.9-0.4-0.7-0.1-0.7 0.6-0.7-0.2-0.1-0.1-0.2-0.1-0.2-0.3-0.3 0.2-0.8-0.4-1-0.1-0.8 1.2-0.3 0.7-0.1 0.2-0.4 0-1.2-0.1-0.4-0.2-0.3 0-0.2 0.3-0.5 0.3-0.1 0.4 0 0.3 0.1 0.3 0.6 0.5 0.2 0.4-0.1 0.4-0.2 0.3-0.6 0.1-2.1 0.4-1.3 0.2-0.6 0.5-0.3 0.6-0.1 0.4 0.3 0.8 1.3 0.7 1.8 0 1.9-1.1 3.7-0.1 1.4-0.2 0.5-0.2-0.1-0.5-0.1-0.4 0.2 0 0.7 0.4 0.5 0.8 0.6 0.4 0.8-0.5 0.8 0.3 0.4-0.6 0.3 0.2 0.6 0.6 0.3 0.9-0.1-0.4 1.5 0 0.9 0.3 0.8 0.8 1 0.4 0.7 0.1 0.7-0.2 0.7-0.4 0.8-0.4 0.8-0.3 0.3 0.1 0.4 0.4 2.2-0.6 0.8 0.5 0.9 0.9 0.9 0.7 0.8 0.1 0.9-0.4 0.7z" id="PH13" name="Caraga">
  </path>
  <path d="M692.4 774.2l0 0.1 1.9 4.4 0.4 1.6 0.3 1.8 0.2 0.8 0.7 1.8 0.2 0.7 0 0.7-0.1 2.1-0.4 1.7-0.7 1.5-1.1 0.8-0.7-0.1-1.5-0.4-0.6-0.1-0.6 0-0.6 0.1-0.5 0.1-0.7-0.3 0.1 1.3-0.3 1-0.4 1-0.2 1.2-0.2 0.4-0.2 0.3-0.4 0.2-0.4 0-0.5 0-1.1-0.3-0.4 0-0.2 0.1-0.1 0.2-0.1 0.3-0.1 0.1-0.1 0-0.4 0.2-0.4 0.2-0.1-0.1-2.3 2.8-1.1 0.8-0.9 0.4-1.8 0.7-0.7 0.4-0.2 0.5-0.2 1.4-0.4 0.6 0 0.1-0.6 0.2-0.7 0.2-0.1 0.2-1.2 0.3-0.3 0.3-0.2 0.4-0.1 0-0.3 0.2-0.6-0.1-0.9-0.6-0.7-0.8-1.1-0.4-0.4-0.1-0.4 0.1-0.1 0-0.4 0.4-0.5 0.5-0.5-0.4-0.4-0.6-0.3-0.5-0.1-0.6-0.1-2.1-0.4-1.3-0.2-0.7-0.3-0.6-0.6-0.6-0.5-0.3-0.5-0.4-0.5-0.7-0.1-0.5-0.2-1.1-0.2-0.5-0.2-0.5-0.3-0.3-0.4-0.3-1.1-0.8-0.3-0.3-0.1-0.4-0.3-0.6-0.6-0.9-0.2-0.4-0.3-1.5-1.7-3-2.4-2.9-0.3-0.2-0.9-0.3-0.4-0.3-0.2-0.6-0.1-0.5 0-0.5-0.1-0.5-1-1.4 0-0.6 0.5-0.4 0.5-0.3 0.7 0 0.9 0.1 0.7-0.3 0.3-1.2-0.3-0.7-0.6-0.7-1.4-1.2-2.2-1.1-3.9-3.8-2-1.6-4.4-2.2-1.1-1-0.2-0.5-0.1-0.7-0.2-0.6-0.4-0.3-1.7 0-0.9 0.1-0.5 0.4-0.1 0.1-0.4 1.7 0.3 3.9-0.4 1.5-1.2 1.5-0.5 0.4-0.2 0.4 0.1 0.2-0.1 0.2-0.6 0.1-2.3 0-0.7 0.2-1.3 0.6-0.5 0.7-0.2 0.9-1.2 3-0.4 0.7-0.6 0.5-0.6 0.2-2.1 0.1-0.2 0.5 0.2 2.7-0.5 1.5-2.3 2.7-0.2 1.8-0.5 1.8-2-0.2-4.6-1.9-0.4 2-2.4-0.1-1.3-0.3-0.8-0.7-2.9-3.9-1.1-0.8-1.2-0.3-1.3-0.1-2.3-0.9 0.7-0.8 2.5-1.4 1.1-0.9 0.5-1-0.1-1-0.4-1-0.3-1.1 0-0.1 0.6-0.4 0.3-0.2 1.9-1.1 7.1-5.7 0.7-0.2 1.1-0.2 0.8-0.5 1.2-1.5 1.3-1 1.7-0.7 1.9-0.5 6.4 0 2.3-0.3 1.8-0.9 0.6-0.7 0.8-1.6 0.7-0.8 0.2-0.6-0.2-0.6-0.4-0.5-0.2-0.6 0.1-0.6 0-0.1 0.2-0.5 0.5-0.8 0-0.3-0.1-0.5 0.1-0.3 0.1-0.2 0.4-0.3 0.2-0.2 0.5-1.2 0.1-0.6 0.2-2 0.2-1.1 0.8-2.2 1.1-1.9 1.6-1.8 1.8-1.4 2.1-0.9 1.4 0 0.3 0.5 0 0.9 0.2 0.8 0.3 0.1 1.2 0.2 0.1 0.1 0.4 0.1 0.5 0.2 0.8 0.5 1.6 1.8 0.6 0.4 0.9 0.3 3.1 0.1-0.5 0.9-0.4 1.1-0.2 1.2 0 1.2 0.4 0 0.4-1.4 0.6-0.9 1.1-0.4 1.6 0.5 0.2-0.4 0.9-0.7 0.2-0.1 0.7-0.2 0.2-0.1 0-0.3-0.2-0.3-0.1-0.3-0.1-0.2 0.2-1.7 0.2-0.5 0.2-0.4 0.6-0.9 0.3-0.6-0.2-1-1-1.9-0.3-1.1 0.3-1.2 0.6-0.7 0.7-0.6 0.6-0.9-0.4-1.1 0-1.2 0.4-2.4 0-4.6-0.4-2.4 0.1-1.2 0.5-1.1 0.4-0.5 0.6-0.5 0.6-0.3 0.6 0.2 0.6 0.4 0.6 0 0.5-0.1 0.7-0.1 1 0.3 1.1 0.4 0.8 0.7 0.4 0.7 0.5 0.4 4.2 2.3 0.4 0.4 1.3 1.6 0.8 0.5 1.1 1.8 0.7 0.6 0.5-0.1 1.2-0.7 1.1-0.4 1-0.5 0.5-0.8 0.5-4.7-0.2-1-0.2-0.3-0.3-0.3-0.2-0.4-0.1-0.5 0.1-0.6 0.5-1.1 0.2-0.7 0-0.7 0.1-0.4 0.3-0.3 0.2-0.2 0.1 0.2 0 0.6 0 1.3 0.1 0.6 0.4 0.4 0.4 0.3 0.4 0.5 0.2 1.2 2.3 2.3 2.5 3.2-1.7 5.6 0.1 2.4 1.3 3.4 0.2 4.7-0.9 8 0.5 2.6-0.1 1.9 0.1 1.9 0.7 2 0.3 1.1-0.1 0.9-0.2 0.9-0.1 1.1 0.2 1.3 1.3 2.3 0.4 1.2 0.3 5.3 0.5 1.5z m-30.7-63.8l0.3 1-0.4 1.5 0.1 0.9-0.1 0.9-0.7 0.7-0.4 0.2-0.5 0.1-0.4-0.1-0.3-0.7-0.4-0.1-0.5 0-0.4-0.1-3.3-1.6-1.3-1.3-0.6-1.8 0.6-2 1.4-1.2 1.9-0.5 2 0.6 0.9 1.4 0.5 0.5 0.6 0.3 0.5 0.4 0.5 0.9z m-67.2 30.2l0.7 0.3 0.3 0.2 0.2 0.3 0.5 1.1 0.6-0.5 0-0.5 0-0.6 0.2-0.6 0.3-0.4 0.8-1.1-0.7-0.6 0.7-0.4 0.9 0.1-0.2 0.9 4.3 1 0.7 0.3 0.5 0.5 0.4 0.9 0.4 0 0.4-0.4 0.2 0.1 0.5 1-0.1 0 0.6 1.7 0.2 0.3 0.3 0.8 2.3 2.8 0.9 1.8 0.6 2.4 0.5 2.4 0.2 6.5 0.8 3.2-0.1 1.1-0.5 0.6-5.7 5.1-1.1 0.6-2.4 0.1-0.9 0.5-0.4 1.4 0 0.1-1 0.1-0.9-0.1-0.4-0.3-0.2-0.4-0.4-0.4-0.6-0.2-2.2-0.4-0.9-1.6-0.2-3.2 0.3-5.5-0.4-21z" id="PH10" name="Northern Mindanao">
  </path>
  <path d="M611.3 790.2l0.4-2 4.6 1.9 2 0.2 0.5-1.8 0.2-1.8 2.3-2.7 0.5-1.5-0.2-2.7 0.2-0.5 2.1-0.1 0.6-0.2 0.6-0.5 0.4-0.7 1.2-3 0.2-0.9 0.5-0.7 1.3-0.6 0.7-0.2 2.3 0 0.6-0.1 0.1-0.2-0.1-0.2 0.2-0.4 0.5-0.4 1.2-1.5 0.4-1.5-0.3-3.9 0.4-1.7 0.1-0.1 0.5-0.4 0.9-0.1 1.7 0 0.4 0.3 0.2 0.6 0.1 0.7 0.2 0.5 1.1 1 4.4 2.2 2 1.6 3.9 3.8 2.2 1.1 1.4 1.2 0.6 0.7 0.3 0.7-0.3 1.2-0.7 0.3-0.9-0.1-0.7 0-0.5 0.3-0.5 0.4 0 0.6 1 1.4 0.1 0.5 0 0.5 0.1 0.5 0.2 0.6 0.4 0.3 0.9 0.3 0.3 0.2 2.4 2.9 1.7 3 0.3 1.5 0.2 0.4 0.6 0.9 0.3 0.6 0.1 0.4 0.3 0.3 1.1 0.8 0.4 0.3 0.3 0.3 0.2 0.5-1-0.1-3.4-0.9-1.5 0-2.7 0.4-1.5 0-0.9 0-0.6-0.2-0.5-0.3-0.8-0.5-0.5-0.6-0.6-1-0.3-0.5-1-0.6-0.9 0-2.2 1.1-0.9 7 0.4 1.9 1.5 1.9 0.5 1.1 0 0.9-8.6 12.6-0.4 1.3 0.8 0.3 0.4 0.2 1-0.1 0.6-0.2 0.2-0.1 0.4-0.3 0.7-0.8 1.1-1.6 0.7-0.6 0.9-0.2 1.4 0.2 0.7 0.4 0.1 0.8-0.5 1.3-1.9 4.5 0 0.4 0.6 0.9 0.7 0.7 0.7 0.4 0.7 0.3 1 0.1 0.9 0.2 1.1 0.9 0.3 0 0 1.1 0 0.4 0.1 0.3 0.2 0.4 0.9 0.6 0.7 0.3 1.7 0.3 0.7 0.3 0.7 0.5 0.7 0.3 0.8 0 0-0.1 0.6-0.4 0.8-1.5 0.7-0.5-0.3-0.2-0.3-0.3 0.2-0.8-0.3-0.8-0.6-0.8-0.7-0.4-0.9-1.2 1-0.9 1.5-0.8 0.5-0.4 0-0.3-0.7-0.6-0.6-0.6-0.3-1 0.3-0.6 1.3-1.4 0.8 1 0.2 0.3 0.1 0.1 2 3.3 1 2.2-0.3 1-0.3 0.4-0.3 0.9-0.1 0.9 0 0.8 0.3 1 0.5 0.4 2-0.1 0.3 11.2 0.4 0.5 2.7 1.6-0.9 1.4-0.1 1.1 0.5 1 1.2 1.4-2.2 0.1-1.7-0.3-1.5-0.8-1.6-1.3-1-1.5-1-1.9-1.1-1.5-1.4-0.3 0.9-3.7-3.9 0.1 0.2-0.9-2.2 0.7-1.2 0.4-0.6 0.6 0.4 1.5 0.1 0.5-1 2.1-2.1 1.1-2.5 0.4-11-0.1-1-0.1 0-0.5 0.2-0.5-0.3-0.5-1.3-0.2-9.8 0.1-0.1 0 0.1-1.1-0.2-1.1-1-0.4-0.2 0.1-0.5 0.8-0.4 0.3-0.1-0.1-0.1-0.3-0.2-0.1-0.4-0.1-0.4-0.4-0.3-0.5-0.2-0.4 0-0.6 0.3-1 0.1-0.5 0.1-5.7 0.8-2.7 2.2-5.4 1.1-1.2 0.9-0.2 1.3-0.7 2-1.3 2-1.7 0.9-0.9 0.6-1.5 1-0.9 0.3-0.5 0.1-0.5-0.1-1.7 0.1-1.4 0.3-1.1 1.1-2-0.8-0.6-0.7-0.1-1.7 0.3-0.6-0.3-0.4-0.8-0.3-0.5-0.5-0.2-0.6-0.9-2.5-5.4-1.6-2.3-2.4-1.6-0.4-0.1-2.9-2.1-2.6-1.4-0.4 0.4-0.9-0.4-1.3-0.2z m-159.4 115.8l0.8 1.1 0.3 0.9-0.6 1.2-1 0.1-1.6-0.5-0.3-0.2-0.6-0.6-0.5-0.7-0.2-0.5 0.2-0.6 0.6-0.5 0.7-0.4 0.7-0.2 0.6 0.1 0.9 0.8z m56.4-26.3l0.1 0.6-0.3 0.3-1.3 0.7-2.4 0.9-0.6-0.2-2.8-1.8-1.1-1.2-0.4-1 0.9 0.1 2.8 1.8 1.3 0.5 1.7-0.1 1.5-0.6 0.6 0z m-71.9-17.4l0.2 0.6 0.1 0.4-0.1 1.1-1.1 3.7-0.3 0.5-0.4 0.4-0.6 0.3-0.7 0-2.1-0.3-0.6-0.3-0.4-0.6 0.2-0.4 0.5-0.2 0.7 0 0.4-0.3 0.4-0.6 0.4-0.7 0.1-0.5 0.2-0.4 0.8-1.2 0.3-1.2 0.4-0.5 0.5-0.4 0.5-0.1 0.4 0.3 0.2 0.4z m34 30.1l-0.2 0.5-0.3 0.1-1.5-0.1-1.9 0.7-0.8-0.1-0.6-0.9 0-0.8 0.4-0.7 0.5-0.5 0.6-0.2 0.9 0 0.8 0.4 0.7 0.5 0.5 0.5 0.7 0.3 0.2 0.3z m10-9.5l0.4 0.9-0.5 1.2-0.5 0.2-0.5 0-0.5 0.2-0.1 0.7 0 0.9-0.2-0.1-2 0.3-0.4 0.2-0.5 0.4-1.5 1.6-0.6 0.4-0.6 0-0.5-0.3-0.5-0.4-0.5-0.8 0-0.6 0-0.5 0-0.5-1.3-1.4-2.1 0.1-4.4 2-1 0.6-0.4 0.2-0.4-0.1-0.4-0.2-0.6-1-0.3-0.2-2.2-0.4-0.5 0.2-1.9 1.2-1.1 0.6-0.5 0-0.6-0.2-0.3-0.2 0-0.3 0-0.4-0.1-0.2-0.3-0.2-0.7-0.1-0.3-0.2-0.8-1.2-0.2-1 0.2-1 0.7-1.1 0.9-0.8 2-0.9 1.5-1 1.2-0.2 0.4-0.2 1.2-1.7 0.5-0.4 0.5-0.1 1.9 0.1 1 0 1 0 0.6 0.3 1.2 0.7 0.6 0.1 1 0.6 1.3 2.8 0.8 0.7 1-0.2 0.9-0.8 1-0.5 2.4 1.1 1.2 0.1 2.3 0 1.2 0.3 0.9 0.7z m-28.8 16.2l-0.5 0.1-0.8 0.4-1.1 0.4-1 0.1-0.6 0.2-0.5-0.2-0.2-0.6 0.6-0.9 1.4-0.6 0.8 0 0.6 0.1 1.1 0.5 0.2 0.5z m2.5-2.6l-0.3 1.2-0.8 0.6-1-0.5 0.1-1.7 0.6-1 0.7 0.4 0.7 1z m-37.1 29.3l-0.3 2.1-0.3 1.2-0.6 0.7-0.7-0.2-0.6-0.4-0.4-0.5-0.1-0.9 0.4-1.6 0-0.8-0.4-0.4-0.3 0.1-0.2 0.4-0.1 0.4-0.1 0.3-0.3 0-1 0-0.4-0.3-0.4-0.5-0.3-0.6-0.2-0.5-0.5 0.8-0.2 1.7-0.4 0.8-0.8 0.3-0.8-0.2-0.7-0.3-0.6-0.2-1.1 0.2-0.4 0.4-0.2 0.6-0.5 0.7-0.4 0.1-0.5 0-0.4 0-0.2 0.4-0.4 1.7-0.8 0.7-0.6-0.2-0.5-0.4-0.6-0.1-0.5 0.3-0.7 1-0.5 0.2-1.7 0-0.7 0.3-0.4 0.3-0.5 0-0.6-0.6-0.1-0.7 0.1-1.8-0.3-0.9 0.5-0.4 0.4-0.2 1.9-0.7 1.6-0.8 0.4-0.3 0.3-0.1 1.9-1.1 0.7-1.3 0.4-0.5 1.7-0.2 1.3-0.5 0.5-0.1 0.4-0.2 0.9-0.9 0.5-0.1 0.4 0.2 0.4 0.1 0.5-0.2 0.1-0.3 0.2-1 0.3-0.4 1.4-0.8 0.5-0.7 0.7-0.3 1.2-0.5 1-0.7 0.6-0.2 0.5 0.1 0.3 0.4 0.1 0.6 0 2.8 0.2 0.4 0.4 0.1 0.5-0.2 0.4-0.1 0.4 0.4 0.1 0.8-0.8 3.3z m-39.5 21l0.2 0.9-0.1 1-0.1 0.9-0.3 0.8-1.5 3.6-0.6 0.5 0-3.3 0.3-3.1-0.3-3.6-0.4-1.7-0.7-1.5 0.6-0.2 0.6 0.2 0.6 0.4 0.3 0.6 0.2 0.4 0.1 0.4 0.1 0.5 0 0.4 0.2 1 0.8 1.8z m19.1 0.1l-0.4 0.1-0.9 0-0.8-0.4-0.3-0.7 1-0.2 1.2 0.6 0.2 0.6z m-3.2-4.4l-0.4-1.4 0.1-0.9 0.6-0.3 0.7 0.3 0.3 0.4 1.1 0.5 0.4 1 0 0.7-0.4 0.5-0.3 0.1-0.9 0-1.2-0.9z m-0.4-9.3l-0.2 0.3-0.6 0.3-1.3 0.3-0.3-0.4 0.2-1.1 1.1-1.8 0.7-0.8 0.8-0.5 0.4 0.1 0 0.8 0.1 0.6 0.2 0.6 0.1 0.7-0.3 0.6-0.3 0.2-0.3-0.2-0.2 0.1-0.1 0.2z m122.5-90.9l0.5 0.2 0.7 0.7 0.4 0.4 0.6 0.2 1.3 0.3 0.7 0.1 0.1 0.2 0.3 0.5 0.4 0.5 0.6 0.2 2.4 0.4 0.6 0.2 0.3 0.3 0.3 0.3 0.3 0.3 0.5 0.2 1.4 0.5 0.5 0.2 1.7 1.1 0.3 0.5-0.7 0.8-1.1 0.4-2.5 0-1 0.6-0.6 0.7-0.5 0.7-0.4 0.8-0.2 0.9-0.3 2.4-0.5 0.9-1.2 0.4-1.2 0.1-1.2 0.2-3.5 1.3-1 0.2-2.3 0-1.8 0.3-0.2-0.1-0.1-1.1-0.1-0.5-0.2-0.4-3.8-3.2 0-2.8-0.2-1-1.1-0.5-1.2-0.1-1-0.4-0.4-1.4 0.2-1.4 0.6-0.9 0.9-0.4 4.4-0.4 0.5 1.8 1 0.2 0.9 3.2 7.2-0.4-2.3-4.6-0.4-2.4 0-1.2 0.9-0.1 0.5 0.1z m-24.2 9.3l-0.4 0.3-0.3-0.5-0.2-1.1-0.3-0.8-0.6-0.8-0.4-0.6 0.4-0.3 0.5-0.5 0.4-0.9 0.5-0.5 0.7 0.8 0 3.7-0.3 1.2z" id="PH14" name="Autonomous Region in Muslim Mindanao">
  </path>
  <path d="M562.4 808l0.1 0.6-0.1 0.4-0.4 0.3-0.3 0.1-0.4-0.1-0.3 0.1-1.6 1.1-0.6 0.4-0.5 0.1-0.7 0.1-0.3 0.1-0.2 0.2-0.3 0.7-0.2 0.2-0.8 0.2-0.6-0.2-0.4-0.6-0.4-0.8-0.3-1.4-0.1-2 0.5-1.9 1.4-0.7 0.8 0.5 0.6 0.8 0.6 0.6 0.9-0.1 0.4-0.5 0-0.7 0.2-0.6 0.6-0.4 1 0.4 1.1 0.8 0.9 0.9 0.6 0.9-1.1-0.2-0.4-0.2 0.3 0.9z m39.6-32.2l0 0.1 0.3 1.1 0.4 1 0.1 1-0.5 1-1.1 0.9-2.5 1.4-0.7 0.8-0.3-0.1-1.2-0.2-3.4 0.2-1 0.2-1.3 0.5-1.2 0.6-0.7 0.6 0.2 1.9 1.5 1.4 1.2 1.7-0.7 2.4-0.5 0.6-0.5 0.5-0.6 0.4-0.6 0.3-1.9 0.4-0.5 0.2-0.2 0.4 0 0.6 0 1.2-0.2 0.2-1.1-0.7-0.5 0-0.5 0.9 0.7 1.1 1.1 1 0.5 0.9 0.4 1.3 0.8 0.7 0.9 0.6 0.9 0.8 0.4 1.2-0.1 1.2-0.3 1.1-0.6 0.9-0.5 0.2-0.6-0.2-1.7-1.3-1.7-0.8-0.8-0.5-1.5-1.7-0.5-0.9-0.8-0.5-0.2-0.3 0-1.2-0.1-0.4-0.2-0.4-0.9-0.3-1.1 0.1-0.9 0.4-0.4 0.7-0.3 0.8-0.7 0.4-0.9 0-0.7-0.3-1.6-1.4-0.7-1-0.3-1.1 0.3-1.1 0.8-0.4 0.9-0.2 1-0.3 0.5-0.9 0-1.1-0.6-1-1.2-0.4-0.7-0.5-0.3-1.4-0.1-1.5-0.2-1-0.6-0.5-0.6 0.5-0.6 1-0.6 1-1.5 1.5-0.3 0.7 0 0.5 0.2 0.6-0.1 0.7-0.2 0.2-0.7 0.5-0.2 0.2 0.1 0.3 0.2 0.3 0.1 0.2 0 0.5-0.3 0.9-0.8 1.2-0.4 0.8-0.1 0.8 0.1 1.6-0.3 0.6-0.6 0.2-0.3-0.1-0.3-0.3-0.5-0.2 0-0.1-1.3-0.3-0.4-0.7-0.8-2.1-0.6-0.5-0.6 0.2-0.7 0.7-0.6 0.7-0.3 0.6 0 0.8 0.1 0.5-0.1 0.4-0.7 0.5-0.6 0.3-0.8 0.1-0.8 0-0.8-0.4 0.4-0.6-0.2-0.5-0.3-0.2-0.2 0-0.1 0.2-0.3 0.1-0.2 0-0.2-0.1 0-0.3 0.1-0.2 0.2-0.2 0.1 0-0.1-1.2 0.3-0.7 0.6-0.2 1.1 0.6 0.1-1.2-0.4-0.8-0.6-0.7-0.3-0.8-0.4-3.4-0.3-0.9 0.4-0.7 0.4-1.1 0.2-1.1 0.1-1-0.5-0.8-1.3-0.1-2.2 0.3-0.5-0.3-0.8-1.1-0.6-0.4-2.4 0-0.4 0.1-1.1 0.5-0.7 0.2-1.2 0.6-4.5 3.6-1.4 1.6-2.2 3.1-0.6 1 0 0.6 1 0.3 1.1-0.3 0.7 0 0 1.4-0.4 0.7-0.6 0.9-0.7 0.9-0.6 0.4 0.5-1.9-0.1-0.3-0.6-0.1-0.6 0.5-0.4 0.7-0.2 0.5-0.6 0.6-2.4 1.4-0.7 1.1 0.3 1.2 0.8 1.1 0.6 1-0.4 1.1-0.4 0.5-1 1.7-0.7 0.4-0.5 0-0.6 0-0.7 0.2-1 1.4-0.8 2.4-0.7 4.6-0.2 2.5-0.3 1-2.2 3.1-1.9 4.9-0.7 1.3-1 0.7-0.6 0.8-0.3 0.2-1.2-0.1-0.5-0.1-2.6-0.9-4.1-2.2-1.3-1.2-2.1-4.2 0-4.5 0.3-0.7 1.6-3.5 3.8-3.3 1.8-0.9 0.5-0.3 0.2-0.3 0.1-0.5-0.1-0.5-0.4-0.1-0.6-0.7 0.1-1.4 0.7-2.4-0.1-1.7 0.1-0.6 0.2-0.5 0.7-1 0.2-0.5 0.1-1.3 0.4-0.7 0.7-0.6 0.9-0.5 0.7-0.5 0.9-0.9 0.5-0.8-1.8-0.8-0.1-0.9 0.6-2 0-2.4-0.2-1.2-0.7-0.5-0.5-0.7 0.5-1.4 1.3-2.4 4.6-5.7 1.3-2.4 0.7-0.8 0.6-0.5 1.5-1.1 1.7-0.5 2-1.2 4.1-1.4 1.4-0.2 0.8 0.5 0.2-0.5 0.4-0.2 0.4 0 0.4 0.3 1-0.4 4.1-0.9 2.1-0.9 0.6-0.4 1-1.8 0.6-0.8 0.2 0.6 0.5 1.2 1 0.6 1.3 0.3 1.2-0.1 5.2-0.8 0.7-0.6 0.6-0.1 1.3 0 0.6-0.1 0.5-0.2 1.1-0.6 3.1-2.6 0.6-1.3-0.7-0.9-1.9-1.3-0.2-0.4-0.2-1.2 0-0.3 0.3-0.3 1-0.6 0.2 0 0.1-0.3 0.2-0.3 0.3-0.3 0.1-0.6-0.1-0.6-0.3-1.2 0.1-0.6 0.3-0.9 1.2-1.6 0.3-1 0.2-0.7 0.6-0.8 0.7-0.8 0.7-0.5 0.8-0.3 4.2-0.6 1.8-0.6 0.9 0 0.2 0.2 0.6 0.7 0.3 0.2 0.5 0.1 3.2-0.3 0.9-0.5 0.7-0.7 0.8-1.2 0.2-0.4 0.8-2.5 0.4-0.6 0.8-0.2 0.3 0.1 0.3 0.2 0.3 0.1 0.4 0 0.2-0.2 0.7-0.6 0.5-0.3-0.3-0.6-1.7-2-0.4-0.6-0.1-0.6 0.4-0.2 0.7-0.1 0.7-0.1 0.4 0.3 0.3 0 1.3 0.8 0.9 0.7 0.6 0.1 0.6 0 0.7-0.3 0 2.8 0.4 1.3 1-0.1 0.3 0.2 0.2 0.1 0.4 21-0.3 5.5 0.2 3.2 0.9 1.6 2.2 0.4 0.6 0.2 0.4 0.4 0.2 0.4 0.4 0.3 0.9 0.1 1-0.1-0.1 0.5-0.2 1.1-0.1 0.6 0.1 0.1 0.2 0.2 0.7-0.3z" id="PH09" name="Zamboanga Peninsula">
  </path>
  <path d="M319.3 683.1l0.2-0.2 0.3-0.9 0.2-0.1 0.4-0.1 0.3-0.3 0.5-0.5 4.3-3.2 0.3-0.5 0.6-1.5 2.5-2.5 0.6-0.9 0.1-0.6 0.3-0.8 0.4-0.9 1.9-2.6 0.6-0.5-0.6-1.2 0.9-0.9 2.6-1.3 0.4-0.5 1.9-4.1 0.4-0.6 0.2 1.8 0 0.8-0.4 0.4-0.3 0.4 0.9 0.7 1.2 0.4 0.5-0.6 0.2-0.4 0.3-0.4 0.4-0.3 0.2-0.2 0.3-0.6 0.1-0.3-0.1-0.1-1.1-1.9-0.2-0.8-0.1-1.1 0.2-0.9 0.4-0.3 1.1 0.1 0.7-0.2 1-0.8 0.9-0.2 1.4 0.3 0.9-0.1 0.8-0.5 0.5-0.9 0.1-0.9-0.2-0.9-0.4-0.7 0.4-0.2 0.1-0.1 0.2 0.1 0.4 0.2 0.5-0.6 0.8-0.4 0.8-0.3 0.8-0.2-0.1-0.9 0.4-0.7 0.2-0.6-0.8-0.4-0.5 0.2-0.7 0.4-0.6 0.1-0.4-0.7 0.1-0.6 0.6-0.8 0.6-0.8 0.5-0.4 0.9-0.1 0.9 0.1 0.8 0.4 0.7 0.3 0.4-0.7 0-0.6 0.2-0.4 1.2-0.1-0.3-0.7-0.5-0.4-0.3-0.4 0-0.8 0.3-0.3 1.1-0.4 0.5-0.4-0.1 0.6-0.1 0.2-0.2 0.3 0.3 0.7 0.4 3.2 0.5 0.4 0.9-0.5 1.6-1.5 0.5-1.2 0.2-0.3 0.4-0.2 0.5-0.2 0.4-0.2 0.6-1.2 1.8-0.5 0.7-0.7-0.5-0.6-0.7-0.7-0.4-0.6 0.2-0.7 1 0.4 1.1-0.5 1-0.9 0.5-0.9 1.4-7.3-0.1-0.7-0.7-0.8-0.2-0.3-0.2-0.5-0.3-0.4-0.4-0.1-0.4 0.1-0.5 0.6-0.4 0-0.6-0.5-0.2-0.7 0.1-1.6-0.3-0.7-0.7-0.6-0.8-0.4-0.8-0.3 1.6-2 0.2-0.2-0.4-0.6-0.7-0.4-0.4-0.4 0.4-0.9-0.8-0.5 0.6-0.5 0.8 0.1 0.2 1.3 0.3 0 0.1-0.2 0.3-0.6 0.2 0.5 0.3 0.2 0.3 0 0.3-0.3 0.4 0-0.2 0.7-0.2 0.1-0.4 0.3 0.8 1.5-1.1 0 0.3 0.6 0.6 0.2 0.6-0.1 0.7-0.3-0.4 1.1 0.2 0.6 0.6 0.4 0.7 0.9 0.3 0 0-0.4 0.4 0 0.3 1.1 0.9 0.5 0.9 0.4 0.5 0.8 0.2 0.6 0.3 0.3 0.4 0.1 0.4-0.5 0.4 0.4 0.3 0.6 0.4 0.6 0.1 0.4 0.2 0.3 0.6 0 0.6-0.3 0.1-0.4-0.2-0.5-0.3-0.5-0.8-1.7-0.3-0.3 0.2-0.8 0.5-0.8 0.2-0.3-0.4-0.6-0.8-0.6-0.9-0.5-0.7-0.2-0.9 0-0.9-0.1-0.8-0.6-0.5-1.1 0.1-0.5 0.6-1.1 0.1-0.3-0.5-0.1-0.8 0.1-0.7 0-0.3-0.6 0.1-3.1 0.3-0.8 0-0.4 0.4 0 0.1 0.6 0.3 0.4 0.4 0.2 0.7 0-0.5-1.3-1.3-2.2-0.1-1.4 0.5-0.7 0.7 0.8 0.8 1.1 0.7 0.7 0.6 0.1 0.5 0.2 0.5 0 0.5-0.3 0.2-0.7 0-1.5 0.7-1.4-0.3-0.7-0.5-0.3-0.1 0.1-0.9-1.2-0.4-0.6-0.2-0.9 0.7 0.1 0.7-0.6 0.5-0.9 0.3-0.8 0-1.2-0.4-2.6 0.2-0.9 0.3-0.3 0.2-0.2 0-0.3 0.1-0.3 0.1-0.2 0.4 0 0.2 0.1 0 0.3 0.9-0.9 0.4-0.6 0.2-0.6 0.2-1.5 0.2-0.8 0.3-0.6 0.6-0.1 0.4 0.6 0.2 0.8 0.1 0.7 0 0.9 0.1 0.4 0.1 0.6 0.3 0.6 0.3 0.5 0.5 0.3 0.2-0.2 0.3-0.2 0.2-0.3 0.8 2 0.1 2.1-0.4 2.3-0.8 2.2-1.4 2.3-0.2 1.1 0.7 1.3 1.3 1.2 0.4 0.7 0.6 2.4-0.1 0.4-0.6 0.4-1.1-0.7-0.8-0.2-0.3 0.3-0.6 1.5-0.1 0.7 0 0.7 0.3 1.2 0 0.6 0 0.5-0.3 1.1 0 0.6 0.1 0.6 0.5 0.8 0.2 1.2 0.2 0.5 0.4 0.5 0.6 0.1 0.7-0.1 0.4-0.2 0.3-0.3 0.2-0.1 0.7-0.2 0.2 0 0.2-0.2 0.5 0.7 0 0.8-0.3 0.7-0.2 0.6 0.4 1.7 0 2.1-0.2 1.1-0.3 0.8 0 0.5 0.8 0.4 1.1-0.1 0.8-0.5 0.7 0.1 0.8 1.2-0.5-0.1-0.5-0.1-0.4 0.1-0.5 0.1 0.3 0.5 0.2 0.3 0 0.3-0.1 0.4 0.7 0.7 0.5 2.2 0.4 1.1 2.3 1 0.6 0.8-0.8 1.3-0.4 0.2-1.3 0.3-0.5 0.3-1.1 1.7-0.5 0.2-2.5 2.2-0.9 1.3-0.7 0.4-1.1 0.2-2.2 0-0.7-0.1-0.8-0.3-0.6-0.1-0.7 0.3-1.6 1-1.1 0.3-1.1 0.3-1.2 0.8-3.7 3.7-1.6 2.2-1.1 2.3-0.8 5.2-1.4 1.5-1.9 0.8-2.5 0.7-0.6 0.2-1.1 0.7-0.5 0.2-0.6 0.1-1.3-0.1-0.7 0-0.5 0.3-1 0.6-0.6 0.2-0.6 0.2-1.2 0.2-2.6 0.1-1.5 0.4-1.4 0.7-1.6 1.1-1.2-0.4-1.2 0.6-0.9 1.2-0.4 1.4 0.3 1.7 1.1 2.3 0.5 1.4-0.4 2.9-0.7 0.3-0.8-0.2-0.8-0.6-0.3-0.8 0.3-0.9-0.3-0.3-0.9-0.1-0.6 0.4 0 0.8 0.2 1-0.2 0.8 0.6 0.3 0.4 0.4 0.1 0.6-0.3 0.6 1.4-0.2 0.9 0.7-0.1 0.8-1.5 0.2 0.1 0.8-0.3 1-0.5 1-0.6 0.7-0.2 0.5-0.1 0.4-0.2 0.3-1.1 0.2-0.3 0.3-1.6 2.6-2.5 4.1-1.9 1.9-0.3 0.5-0.2 1-0.6 1-2.1 2.8-0.3 0.2-2 1.4-0.5 0.1-0.8 0.5-2.7 2.9-0.8 1.4-0.6 0.6-1 0.2-2.2 0-0.5 0.1-1.3 0.8-0.6 0.2-3.3 0.1-0.9 0.5-0.4 0.3-1.4 0.6-0.3 0.2-0.3 1.7-0.7 1.5-0.1 0.2 0.1 0.6 0 0.3-0.2 0-0.4 0-0.4 0.1-0.1 0.4-0.2 1-0.5 1.3-1.2 2.4-2.4 3.5-0.7 0.6-4.8 2.6-3.8 3-3.5 3.8-1 0.7-1.2 0.3-1.2 0.1-0.7 0.3-0.6 0.4-1 0.3-1.1 0.1-3.1-0.4-1.3 0.5-0.4 1.2 0 2.3-0.4 1.1-1.5 2-0.3 1.2-0.2 0.6-0.5 0.3-0.5 0.1-0.3-0.3-0.2-0.5-0.7 0-5 1.5-1.8 0.8-1.4 1.1-0.2 0.3-0.4 0.9-0.2 0.2-1.8 0.6-0.4 0.9-0.7 0.8-1.5 1-1.3 1.6-0.4-0.2-0.1-1.5 0.1-0.7 0.5-1 0.3-1.2 0.3-0.4 0.4-0.4 0.2-0.2 0.1-0.5-0.1-1.2 0-0.8 0-0.6 0-0.3 0.2-0.2 0.5-0.4 0.2-1.3 0.5-1 1.2-1.9-0.1-0.1-0.3-1 0.9 0.2 0.4-0.8 0.2-1.1 0.5-0.6 0.6-0.2 0.8-0.7 0.8-0.9 0.6-0.7-0.7 0 1.1-1.8 0.9-0.8 2.2-0.7 0.9-0.8 0.8-0.9 3.8-5.9 1.3-1.4 4.2-3.6 0.9-1.6 0.4-1.2 0.4-0.8 0.7-0.5 1.3-0.1 0.7-0.6 0.4-0.1 0.2 0.5 0.2 0.3 0.5 0.1 0.6-0.1 0.5-0.1 0.6-0.5 0.4-0.5 0.6-1.8 0.1-0.1 0.3-0.3 0.2-0.4-0.1-0.4-0.3-0.5 0.7-0.6 2.2-1.4 0.7-0.3 0.9-0.5 1.2-2.6 0.8-0.6 2.2 0.3 1.1-0.1 1.2-0.5 0 0.6 0.1 0.5 0.2 0.5 0.5 0.3 0.7-0.6 0.5-0.6 1-1.5 0.5-0.5 3.9-2.5 0.4-0.3 0.1-0.5-0.3-1.1 0.2-0.7 0.8-0.6 1.2-0.6 1.2-0.8 1.2-3 3.3-2.3 1.1-1.9 1.5-1.3 0.3-0.4 0.2-0.3 0.2-0.3 0.3-0.4 0.1-0.5-0.1-1.2 0.2-0.6 0.6-0.7 0.6 0.3 0.6-0.2 1-0.8 0.4-0.2 0.4-0.1z m151.1 4.5l-0.6 0.6-0.6 0.4 0.1-0.4 0.5-1.2 0.3-0.2 0.6-0.3 0.3-0.5 0.2-0.6 0.5-0.5 0 0.3-0.1 0.2-0.1 0.1-0.1 0.1 0.2 0.2 0 0.2-1.2 1.6z m-85-78.2l0 0.8-0.4 0-0.3-0.2-0.4 0-0.4 0.2-0.4 0.4-0.3-0.9-0.6-0.6-0.6-0.3-0.3-0.3-0.2-2.1 0.2-0.7 2.2 0.9 0.6 0.6 0.4 0.7 0.3 0.7 0.2 0.8z m-1.1-7.8l-1 0.9-1.1 0.8-0.3 0.2-0.7-0.4-0.2-0.6 0.2-0.8 0.1-0.5 0.2 0.1 0.9-0.5 0.3-0.2 0.1-0.2 0.2-0.2 0.5-0.1 0.8 0.5 0.2 0.5-0.2 0.5z m-58.8 227.7l-0.7 0.5-0.8-0.1-1.4-0.4-1.7-0.1-0.5-0.4-0.4-0.9-0.1-0.7 0.2-0.5 0.6-0.4 0.8-0.3 1 0.2 0.6-0.1 0.6-0.3 0.7-0.1 0.7 0.1 0.5 0.5 0.6 1.2-0.4 0.4-0.9-0.4 0 0.5 0.6 1.3z m-77.7-56.5l0.5 0.7-0.2 0.4-0.6 0.3-0.3 0.3 0.1 0.8 0.6 2 0.1 1.1-0.1 0.3-0.2 0.5-0.1 0.1 0 1.1 0.4 0.4 0 0.2-0.2 0.1-0.1 0.1-0.4 0.4-0.1 0.1-0.2 0.6-0.6 0.7-0.8 0.6-0.9 0.2 0.5 0.9-0.4 0.3-0.9-0.1-0.7-0.4 0.3-0.8-0.3-0.9-1.1-1.7-1.1-2.7 0-0.3 0.3-7.3 0.6 0.4 0.2 0.5 0 0.6 0.3 0.3 0.8 0 0.3-0.6 0.2-0.8 0.4-0.4 2.4-0.5 1 0.1 0.5 0.6-0.3 1.1 0 0.4 0.1 0.3z m-3.9-3.9l-0.7-0.4 1.7-1.3 0.9-0.4 0.7 0.6 0.6 1.7-0.1 0.4-0.4 0.2-0.5 0.1-0.6 0.1-0.5 0.5-0.5-0.5-0.3-0.5-0.3-0.5z m10.5-3.2l-1.1 0.3-1.2-0.4-0.5-0.7 0.1-0.5 0.7 0.1 1.2 0.1 0.8 0.5 0 0.6z m7.7-4.8l0.6 1.4-0.5 0.6-0.4 0.5-0.6 0.3-0.7-0.4-1.6 0.8-0.6-1.2-0.1-1.9-0.3-1.4 0.3-0.7 0.2-1.6 0.2-0.7 0.5 0.3 0.5 0 0.4-0.2 0.5-0.4 0 0.2 0 0.1 0.2 0 0.1 0 1.6 1.1 0 1.6-0.3 1.6z m-4.5-3.8l-0.1 0.7-1.1 1-1.5 1-1.3 0.1-0.5-1.4 0.5-0.6 2.8-2.4-0.1 0.7-0.1 0.2-0.1 0.2 0.3 0.5 0.6-0.4 0.4 0 0.2 0.4z m147.2-122.3l-1.1 0.5 0 0.3 0.2 0.5-0.5 0.5-0.9 0.2-0.9-0.4-0.1 0.3-0.1 0.3-0.1 0.2-0.1 0.3-1.3-1.8-0.6-0.4 0.2 1 0.3 1.1 0.2 1.1-0.3 0.9-0.5 0.1-0.6-0.1-0.5 0-0.3 0.5-0.2 0.3-0.4 0.2-1 0.1-0.8 0.2-0.7 0.4-0.8 0.2-1-0.6-0.4-0.9-0.2-1.1 0-2.3-0.6 0.2-0.5-0.1-0.2-0.3 0.1-0.2 2.2-1.7 0.5-0.6 1.3-2.3 0.4-0.6 0.3-0.2 0.4-0.2 0.5 0.1 1.7 1 1.5 0.7 1.7 0.5 1.2 0.4 1.4 0.8 0.6 0.9z m-8.4-45.9l-1.1 1.5-0.6-0.5-0.1-0.7 0.3-0.7 0.4-0.8-0.7 0-0.9-0.3-0.4 0-0.4 0.7-0.4 0.5-0.6 0.2 0-0.2-0.3-0.5-0.5-0.5-0.4-0.2-0.6-0.3-0.3-1-0.8-0.2 0.7-1 0.7 0.5 0.7 1 0.8 0.6 0.6-0.4 0.2-1 0-1.6 0.4 0.5 0.6 1 0.5 0.4 0.3-0.6 0.3-0.1 0.3 0.2 0.2 0.5 0.4-0.9 0.2-0.8-0.2-0.6-0.8-0.4 0.6-0.4 0.6-0.2 0.5-0.1 0.5 0.4 0.5 1.9-0.3 2.2-0.9 1.9z m12.3-24.9l-0.4 0.1-1.4 0.2-0.1 0.5 0.2 0.8-0.7 0.8 0 0.3 0.2 0.1 0.6 0.3 0-0.4 0.5 0.2 0.4 0.3 0.3 0.3 0.2 0.4-1 1.2-0.4 0.3 0.7 1.1-1 1.8-1.8 1.4-1.6 0.1-0.9 0.9-0.7-0.9-0.2-1.6 0.3-1.3 0.7 0.5 0.2 0.2 0.2 0.4 0.4 0-0.1-0.8-0.1-0.3-0.2-0.4 0.7-0.7 0.6-0.8 0.2-0.8-0.4-0.7-0.4 0.3-0.3 0-0.4-0.3-0.3 1.2-0.7 0.5-0.8-0.1-0.8-0.5-0.4-0.7-0.5-1.5-0.5-0.4 0.3-0.2 0.4-0.4 0.4-0.2-0.6-0.9-1.4-1.3-0.6-0.8-0.3-0.8-0.8-2.6 0.5 0.1 0.2 0.2 0.3 0.1 0.4 0 0 0.1 0.1 0.1 0.3 0.2 0.2 0 0.2-0.1 0-0.3 0-0.3-0.2-0.1 0.1-0.4 0.6-0.8 0.8-0.3 0.5 1.2 1.9 1.1-0.2 0.6 0.9 0.2 2.4 0 0.5 0.1 0 0.2-0.3 0.3-1.2 0.3 0.3 0.4 0.6 0.3 0.3 0.2 1.5 1.2 1.1 0.3 0.5 0.3z m13.7-7.7l-0.7 0.3-0.7 0.2-0.4-0.1-0.2-0.3-0.5-0.2-0.9-0.1-0.7 0.3-0.6 0.4-0.7 0.2-0.7-0.3-0.6-0.5-0.6-0.3-0.7 0.3-0.1-0.9-0.7-0.2-0.9-0.1-0.8-0.3-0.5 0.4 0.4 0.7 0 0.6-0.2 0.6-0.2 0.7-0.4-0.2-0.3 0-0.1 0.2-0.2 0.4-0.4 0-0.8-1.5-0.6-0.4-2.3 0.4-0.9-0.3-1.1-0.6-0.9-0.8-0.7-1.6-1.6-1.8-0.3-1.1 0-0.8-0.1-0.7-0.3-0.5-0.5-0.6-0.4-0.6-0.1-0.8-0.2-0.8-0.6-0.7-0.6 0.5-0.6 0.6-0.4 0.8-0.3 0.8-0.6-0.4 0.1-0.4 0.5-0.5 0.4-0.6 0.1-0.7 0-0.6-0.1-0.8 0.3-1.1 0.7-0.4 1-0.3 1-0.6-1.4-0.1-0.5 0.1-0.4 0.4-0.1-2.2 0.4-0.8 1.2 0 1 0.4 0.4 0.8 0 0.9 0.1 0.5 0.8 0.2 2 0.3 0.9 0.2 0.9 0.5 1.5 1.2 1.2 1.4 0.4 0.3 0.5 0.2 0.9 0 0.5 0.2-0.6 0.1-0.4 0.3-0.2 0.5 0.1 0.6 1.2 0 2.9 2.2 1.3 0.8 0.2-0.6 0.3-0.3 0.5-0.1 0.5 0.2 0-5.1 0.4 0 0.7 1 0.4 0.9 0.1 0.8-0.1 1.5 0.4 0.6 0.7-0.2 0.8 0 0.3 0.9 0.2-0.1 0.1 0 0.1-0.3 1.6 1.6 0.7 0.9 0.3 0.7-0.2 0.8-0.4 0.3-0.4 0.1-0.5 0.5-0.3 0.8 0.3 0.2 0.4-0.1 0.3-0.5 0.3 0 0 0.1 0 0.1 0.1 0.2 0.4-0.4 0.3 0.7-0.2 0.5-0.6 0.4z m40.1 64.4l-1.3 0.3-1.5-0.1-0.9-0.8 0.4-1.7 0.4-0.3 1.8-1.1 1-1 0.4-0.1 0.1 0.8 0 1.2-0.7 1.8 0.3 1z m-43.9-60.2l-0.2 0.4 0.1 0.4 0.2 0.3 0.1 0.3-0.4 1.4 0 0.6 0.1 0.6 0.6 1 0.1 0.5-0.6 0.4-0.7-1.1-0.9-2.7-1.9-3.4 0.6-0.1 2.4-1 0.5 0 0.5 0.1 0.3 0.4 0.1 0.5 0 1.1-0.1 0.1-0.5 0.1-0.3 0.1z m-16.5 165.9l0 0.2-0.1 0 0.1-0.2z m0.6 0l-0.1 0-0.1-0.2 0.2 0.1 0 0.1z m-0.4-0.2l0-0.1 0-0.1 0.1 0 0 0.1-0.1 0.1z m0.2-0.3l-0.1-0.1 0.1 0 0 0.1z m52-252.4l0.4-0.3 0.3-1 0.7 0.2 0.3 0 0.4-0.2 0.1 0.2 0.3 0.2-0.2 0.5-0.4 0.3-0.3 0.3-0.6 0 0.4 0.5 0.5 0.6 0.6 0.6 0.6 0.2 0.5 0.5 1.2 2.1 0.8 0.5 3.6-0.2 0.9 0.6-0.2 1.8 0.3 0 0.1-0.3 0.2-0.9 0.1-0.3 0.2-0.3 0.1-0.1 0.4-0.3 0.6-0.3 0.6-0.2 0.7-0.4 0.3-0.7 0.4 0 1.1 2.1 6.2 5.1 2.3 3.6 0.9 0.5 1.1 0.2 0.9 0.5 0.6 0.8 0.1 1.2-0.1 0.5-0.3 0.6-0.2 0.6 0.2 0.6 0.6 0.4 0.7-0.1 0.6-0.2 0.5-0.1 1.3 0 1.2 0.3 0.9 0.5 0.5 1.1-0.2 1.1-0.7 0.8-1.9 1.2-0.6 1-0.4 1.2 0 1.3 0.5 3.4 0 0.9-0.5 2.2 0.1 0.8-0.3 0 0.3 1.5 0.1 3.4 0.5 1.3 1.5 1.9 0.2 0.4 0 0.6 0.2 0.9 0.3 0.9 0.5 0.9 0.1 0.4-0.1 1.4-0.2 0.1-0.2 0-0.3 0.2-2.1 3.1-0.6 0.6-1.4 0.8-0.4 0.2-0.3-0.1-0.3 0-0.1 0.5 0.1 0.9 0.1 0.4 0.2 0.4-0.4 0.4-0.3-0.4-0.2 0.4-0.1 0.2 0.1 0.4 0.2 0.5-1 0.6 0.1 1.6 0.6 1.6 1 1.1 0 0.4-2.1-0.7-1.1 0.1-0.1 1 0.3 0.3 0.1 0.5-0.1 0.5-0.3 0.5 0.5 0.3 0.2 0.3 0.1 0.4 0 0.5-1.6-1-0.6-0.9-0.8 0.5-1.3 1.1-0.7 0.1-0.6 0.4-1 1-1.4 2.7-0.1 0.3-0.8 0-1.2-1.2-0.8-0.3-3.3 0-1-0.6-0.7-1.2-0.4-1.6 0.5-1.5 0.3 0.9 0.5 0.5 0.6 0.1 0.8-0.4-0.4-0.2-0.4 0.1-0.3 0.1-0.4-0.9 0-0.2-1.1-0.8-0.4 0.1 0 1.1-0.8-0.5-1.1-0.9-1-1.1-0.7-1.2-1.3-1.3-0.5-0.1-0.3-0.4-2.2-3.9-0.7-0.4-0.5-0.6 0.1-1.3 0.5-2.3 0-1.1-0.3-1-0.5-1-1.5-1.7-0.9-1.9-0.8-0.8-1.2-0.5-1 0-0.8-0.3-0.3-1.3 0-0.6-0.3-1-0.1-0.7-0.1-0.6-0.9-1.4 0-0.5 0.3-0.4 0.2-0.3 0.2-0.3 0-0.5-0.1-2.7-0.5-1.7-0.5-3-0.9-1.7-2.4-3.3-1.7-3.5-1.2-1.5-2.6-0.9-1-1.2-0.9-0.4-1.8 0.2-0.6-0.3 0.6-1-1.4-1.3-1-1.6-0.7-1.8-0.4-3.8-0.4-0.9-0.7-0.4-0.4 0-0.9 0.2-0.4 0.2-0.4 0.3-0.2 0.3-0.2 0.3-0.3 0.2-1 0.9-0.7 0.2-0.8-0.4-0.7-0.5-0.6-0.8-0.4-0.9-0.1-1 0.2-1.2 0.6-1.2 0.8-0.9 1.1-0.7 1.2-0.5 1.2 0 3.7 0.8 3.2 0.2 0.7-0.1 0.6-0.2 0.5 0 1.1 0.7 0.6 0.1 1 0.2 2.1 0 1.2 0.2 0.7 0.6 0.9-0.5 0.7 0.3 1 0.9 0.9 0.1 0.8-0.2 1.6-0.6 4.8-1.1 0.2-0.2 1.2-0.6 0.7 0.6 0.5-0.1z m-35.1-10.8l0.1 0.6-0.9 0.7-0.2 0.3-0.3-0.5-0.4-0.6-0.4-0.6-0.5-0.2-0.8-0.2-0.3-0.4-0.2-0.5-0.4-0.4-0.5-0.4-0.6-0.2-0.6-0.2-0.7 0-0.3-0.2-0.6-0.7-1.8-0.6-0.8-1-0.5-1.3-0.2-1.3 0.1-0.6 0.2-0.4 0.4-0.3 0.6 0 0.8 0.3 1.3 0.6 1.1 0.8 0.3 0.6 0.8-0.3 1 0.3 1 0.5 0.9 0.6 1.8 2.8-0.3 0.7-0.5 0.4-0.2 0.5 0.4 0.7 0.5 0.2 0.4 0.1 0.3 0.2z m45.3 84.9l-0.5 0.1-0.5-0.3-0.5-0.4-0.5-0.2-0.4-0.5-0.2-0.8-0.5-0.8-1-0.5-0.6-1.7 1.1-1.4 1.5 0.6 0.5 1.2 0.4 1.8 0.2 0.5 0.3 0.2 0.1 0.1 0.6 1.2 0.2 0.6-0.2 0.3z m52.4-68.7l1 0.7 0.3 0.5-0.5 1.7-3.1 3.2-1.2 1.6 0.5 1.1-0.5 1-1.7 1.4-0.8 0.2-0.9-0.6-0.7-0.8-0.5-0.5-0.6-0.2-1.8-1.6-0.5-0.2-0.9 0-0.4-0.2-0.6-0.4-0.9-1.5-1.6-1.7-0.2-0.6 0.2-1.3 0-0.4-0.2-0.8 0-2.9 0.2-0.8 0.3-0.5 1.5-2.6 0.1-0.5 0.1-1.6 0.2-0.3 0.8-0.2 0.7 0.8 1.2 1.7 0.2-0.3 0.6-0.6 0.3-0.3 0.8 0.9 1.2 0.3 1.2-0.4 0.4-1.1 0.7 0.4 0.5 0.5 0.2 0.6-0.2 0.8 0.8-0.3 0.6 0.3 0.2 0.5-0.5 0.6 0.2 0.2 0.6 0.4 0.3 0.1 0.8-0.5 1.1 0.3 1 0.8 0.4 1-0.2 0.2-0.4 0.1-0.5 0 0 0.4 0 1 0.2 0.4z m31.2 56.1l-0.9 3.9-0.6 0.7-0.9 0.7-0.9 0.6-0.7 0.3-0.3-0.2-0.8-1.1-0.5-0.3-1.1-0.3-0.5-0.4-1.3-2.2-0.9-1.1-1.3-0.4-1.2-0.2-1-0.4-0.8-0.8-0.5-0.9 0-2 1.2-1.1 2-0.5 6 0 2 0.4 0.7 0.3 0.3 0.4 0.3 1.1 0.3 0.7 0.4 0.7 1 1.3 0 0.8z m-20.9-10.2l0.7 2.1 0 1.9-1.7 1.5-0.8-1-0.5-1-0.2-1 0.1-1.2-0.1-0.2-0.1-0.2-0.2-0.4 0-0.3 0.2-0.3 0.4-0.1 0.2-0.3 0.3-1.2 0.3-0.4 0.4-0.3 0 0.7 1 1.7z m-8.1-4.6l0.5 0.5 0 0.9-0.2 0.3-0.9-0.2-0.3 0.3 0 0.5 0.3 3.1-0.3 1.7-1.2 3.8-0.4 4-1 3.9-1.6 4-0.4 0.6-0.4 1 0.6 0.7 0.7 0.7 0 0.8-0.7-0.7-0.3 0.4-1 0.9-0.2 0.4 0 2.8-0.4 0-1.1-1.3-0.3-0.8 0.3-0.9-1.4-0.1-0.3-0.9 0.2-2.8 0.5 1.3 0.8 0.3 0.6-0.6 0.3-1.2-0.1-0.7-0.5-0.2-0.6-0.2-0.6-0.2-2.2-2.2-0.5-0.4 0.2-2 0.5-2.2 0.7-1.1 1.7-0.7 0.8-1.6 0.2-2 0-1.9-0.3-3.2 0.2-1.2 1.3-1 3-0.9 1.6-0.8 0.5-1.3 1.7 0.4z m-22.8-14l-0.2 0.1 0.1 0.2 0.2 0.2-0.3 0.2-0.3 0-0.3-0.3-0.2 0.1-0.2-0.1-0.4-0.5-0.3-0.3-0.1-0.2-0.1-0.6 0.4-0.7 0.6-0.1 0.7 0.1 0.3 0 0.4 0.4 0.3 0.6-0.2 0.6-0.2 0.2-0.2 0.1z" id="PH41" name="Mimaropa">
  </path>
  <path d="M455.7 418.9l0.7 1 0.1 1.5 0.7 0.5 1.3 2.2 0.1 0.2 0.2 0.6-0.2 1.5 0.7-0.2 0.6-0.5 0.8-0.5 0.2 0.2 0.2-0.1 0.3-0.3 4.1-0.2-0.4-3.6-0.5-4-0.4-1.3 0.3-0.4-0.3-0.5 0.3-0.5 0.1-1.1-0.4-0.8 0.2-0.7 0.5-0.4 0.8 0.2 0.3-1.2-0.1-0.5-1.3-0.4 0.2-1.4 0.9-1.7-0.5-0.4 0-0.7 0.3-0.2 0.6-0.9 0.7-0.9 1.1-1.4 1-1.5 2-0.4 1.3-0.8 1-1.3 1.2-1 1.8 0-0.3-6-0.4-1.9 0.4 0.1 0.3 0.1 0.4 0 0.4 0-0.1-1.5 1-1.3 1.1-1.3 0.5-1.4 0-0.5-0.4-1.3-0.1 0.1-0.2 0.1-0.3 0 0-0.2 0.1-0.4 0.3-0.1 0.2-0.1 0.1 0 0.3-1 0.3-0.7 0.6-0.4 0.9 0.1 0.5 0 1.2 0.6 0.7 0.8 0.3 1 1.1 5.6 0.4 0.6 0.6 0.6 1.8 2.9 0.3 0.9 0.2 1.5 0.6 1.5 0.9 1.3 0.9 1.3-0.3 0.1-0.5 0.5-0.3 0.1 2.2 2.7 0.4 0.5 0.4 0.5 3.4 2.7 0.6 0.7 0.1 0.6-1 0.3-2 0-1.2 0.3-1 0.4-0.8 0.7-0.4 0.9 0 2.4 0.2 1 1.9 6.6 0.3 2 0.6 2.2 0.4 0.9 0.6 0.9 2.3 2.1 0.5 1 0.1 0.8-0.2 1.9 0.2 0.4 1 0.9 0.2 0.5-0.1 0.9-0.2 0.8-0.5 0.7-0.6 0.5 0 0.4 0.7 0.6 1.9 2.8 3.6 2.6 3.7 3.8 1 0.8 8.2 3.2 7.7 1.7 0.1-1.4-0.6-1.1-2.1-2 1-0.3 4.9 1.3 0.3-0.1 0-0.7-0.2-1 0.2-0.2 0.8-0.2 0-0.3-1.3-0.4-2-2.5-0.9-0.6-1.5-0.5-1.2-1.2-0.8-1.6-0.4-1.6 0.5 0.4 0.2 0.3 0.1 0.5 0.3 0 0-1.3 0.6-0.8 2-1 0.7 0.3 0.1-0.9 0-1.3 0.3-0.8 0.6 0.2 0.2 1.1-0.2 1.3-0.2 0.9 0.4 0.5 0.1 0.6 0 0.7 0.2 0.8-0.1 0.2 0.1 0.3 0.3 0.3 0.3 0 0.2-0.2 0.2-0.3 0.1-0.3 0.3 0.6 0.1 0.7-0.1 1.4 0.6-0.2-0.1 0.8 1.1 0.2 1.5-0.6 1.1-0.7 1.4-1.4 0.9-0.7 0.8-0.5 1.3-0.3 1.1 0.1 18 8.7-3.3 0.8-7.5 0.9-2.9 1.5-0.1 0.2-0.1-0.3-0.7-0.8-0.2-0.3-0.2-0.2-1.1 1.5-3-0.2-1.3-0.4-1-0.9-0.2 0.7 0.4 0.9 0.7 0.7 0.7 0.3 0.2 0.5 2.6 3.7 0.6 1-0.1 0.7-0.3 0.8 0.1 1.2 0.4 2-1.1-0.3-0.3 1 0.3 2.5 0.3 1.4 0.9 1.2 1.9 1.9 3.9 2.4 0.8 0.8-0.2 0.9-1.3-0.6-2.2-1.8 0.3 0.9 1.4 2.2 2.3 2.8 0.6 1 0.5 1.1 0.5 2.2 0.3 2.1 0 2.2 0.1 0.7 0.2 0.4 0.2 0.3 0.2 0.4 0.1 1.1 0 0.7-0.1 0.4-0.3 0.2-0.5 0.2-0.5 0.2-0.2 0.4-0.5 0.5-1.3 0.8-1.3 0.5-0.9 0.2-0.9-0.5-3.6-3.1 0.2-1.1 0.5-1.9 0.1-0.9-1-3.2-5.3-7-0.1-0.4-0.1-0.7-0.2-0.4-1-1-0.3-0.5-1.5-0.6-0.4-0.7-0.8-1-3.3 0 0.1-0.8-1-0.3-1.8-0.1-0.7-0.5-0.3-0.5-0.2-0.9-0.3-0.5-0.4-0.5-2.9-4.7-1.4-1.6-1.7-1.3-0.4 1-0.8-0.2-0.9-0.8-0.7-0.4-1 0.1-0.2-0.1-1.9-1.8-0.7-0.4-0.7-0.2-0.6-0.1-0.5-0.2-1.2-1-0.6-0.4-0.6-0.3-1.7-0.5-0.8-0.8-0.6-1-0.8-0.9-0.4 0-2.1-0.7-0.8-0.4-0.3 0.7-1 0.6-0.2 0.8-0.4 0.3-2.5 0.6-0.3 0.3-0.8 0.9-0.5 0-0.9-0.3-0.3 0.1-0.7 0.5-1.5 0.5-1 0.7-0.4 0.2-0.4 0.1-0.9 0.1-0.2 0-0.6 0.4-1.6 1.8-1.1 1.2 0.4 3.9-0.3 1.4 0.5 0 0.4 0.1 0.6 0.2-1.6 1.7-0.2 0.4-2.2-0.5-0.8-0.1-1 0.6-3.1 2.3-1 1.1-0.8-0.2-0.8-0.5-0.2-0.2-1.5-0.6-0.7-0.2-0.9 0-0.5-0.1-0.5-0.4-0.5-0.2-0.9-0.1-1.8 0.4-0.8 0.4-0.7 0.4-0.6-0.2-1.2-0.2-0.5-0.4-0.2-0.5 0.1-0.2 0.4-0.4 0.1-0.6 0.2-1.3 0.2-1 0-0.9-0.7-2-0.2-0.2-1.1-0.7-0.7-0.3-0.6-0.2-0.6 0.2-4.2 4.8-0.4 0.3-0.4-0.3-0.3-0.6-0.1-0.7 0.3-0.3 0.4-0.3 0.3-0.6 0.2-0.6 0.2-0.3 0.7-0.1 0.4-0.3 0.1-0.4 0-0.8-0.8-0.9-0.2-0.2 0-0.7 0.2-1.1 0.1-0.7 0-0.9-0.2-0.9-0.3-0.8-0.6-0.6-1-0.3-4.8-0.6-2.2-0.6-1.2 0-1 0.4-0.4 0.7 0.2 1 0.7 1.1 0.5 1.2-1.1 0.2-2.2-0.5-0.5 0.8 0.2 1 0.5 1.2 0.2 1-0.3 0.7-0.7-0.5-1.2-1.5-0.4-2-0.1-4.6-0.9-2.1 0.8-0.2 0.7-0.5 0.3-0.6-0.2-0.2-0.6-0.4-0.2-0.8 0.3-3.3-0.2-1.5-0.6-1.1-1.5-0.5 0-0.4 0.9-0.4 0.1-0.5-0.5-0.5-0.8-0.5 0.5 0 0.3-0.1 0.7-0.3 0-0.3-0.8-0.7 0.5-1 0.9-1 0.4-0.9 0.4-0.9 0.8-0.4 2.2-0.4 0.7-0.3 0.9-0.5 0.6-0.6 0.3-0.7 0.3-0.3 1.3-0.6 0.4-0.2 1.2-1.9 4.7-4.6 0.4-0.2 0.6 0 1.2 0 0.4-0.1 0.9-1 0.9-0.7z m64.2 27l-1.1-0.7-2-1.7-3.6-2.3-2.1-2-0.6-0.3-0.9-0.5-1-1.3-0.9-1.4-0.3-1 0.1-0.7 0.4-0.4 0.6-0.2 0.7 0.2 0.3 0.2 0.2 0.2 0.5 0.6 6.9 6 2.4 1.7 1.2 1 0.6 1.3-0.4 1.3-1 0z m4.5-40.6l-4.2-3.2-1.5-0.2-0.7-0.3-0.4-0.4-0.2-0.7-0.3-0.6 0-0.3 0.9 0.2 0.1-0.2 0.6-0.5 0.2 0.7 0.4 0.3 0.6 0 0.7-0.3 1.8 0-0.4 0.4-0.2 0.4 0 0.6 0.2 0.6 0.5 0.4 0.6 0.1 1-0.2 0.7 0.5 0.4 1.2 0 1.2-0.8 0.5 0-0.2z m-11.3-13.7l-0.6-0.4-0.8 0.2-0.5 0.6-0.1 0.6 0.2 0.3 0.4-0.3 0.5 1.4-0.1 0.6-0.5 0.4-1.7 1.1-0.2 0.2 0.1 0.3 0.1 2 0.1 0.5 0.3 0.7 1-0.1 0.6 0.9 0.4 1.4 0.5 3.5-0.1 0.8-1 2.7-1.1 0.9-1.2 0.7-1.1 0.3-1.3-0.5-0.4-1.3 0-1.4 0.4-1.4 1-0.2-0.1-2.2-0.8-2.5-1.1-1.2-0.8-0.2-0.2-0.7 0.1-1.9-0.2-0.6-1.2-1.8-0.4-0.5-0.9-0.3-0.5 0-0.2-0.3 0.5-3.7 0.3-1.3 0.6-0.5 1.6 1 1.1 0.1 0.4-0.9 0.4-0.5 1-0.1 2.2 0.3 0.8 0.5 0.5-0.3 0.6 0.3 0.4 0.6-0.4 0.9 1.3 0.1 1 0.5 0.6 0.9-0.3 1.2-1.2-1.4z m17.3 17.1l-1.8-0.2-0.2-0.9 1.4-0.8 1.2-0.4 0.9-0.5 0.8-0.2 0.8 0.4 0.4 0.3 0.1 0.9-1.2 1-1.2 0.3-1.2 0.1z m-69.8 61.4l0.4 0.2 0.4-0.1 0.6-0.3 0.4 0.1 0.3 0.4 0.2 1.4-0.3 0.4-0.9-0.3-1.5-1.4 0-0.4 0.4 0z m-6.9-3.4l-0.7 0.1-1.8-0.4-1.9-1.1-0.2-0.3-0.5-1.3-0.1-0.2 0.1-0.1 0.6 0.7 0.4 0.3 1.9 0.7 1.5 0 0.9 0.1 0.5 0.3 0 0.8-0.7 0.4z" id="PH40" name="Calabarzon">
  </path>
  <path d="M687.6 670.1l-0.6-0.1-0.4-0.3-0.1-0.4-0.1-0.4-0.2-0.4-1.2-1.5-2.1-3.4-1.8-1.1-1-0.8-0.4-0.9-0.7-2.3 0-1.2 0.7-0.8 0.6 0 0.5 0.3 0.9 0.8 2.2 0.9 0.7 0.5 0.5 0.9 0.8 3.7 0.5 0.7 0.7 0.8 0.7 0.9 0.3 1.2 0.6 1.8-0.1 0.2-0.4 0.2-0.3 0.4-0.3 0.3z m-5.4-33.5l0.1 0.6 0.5 1.3 0.1 0.7-0.1 2 0.1 0.8 0.4 0.8 0.7 1.1 0.7 0.6 0.4-0.6 0.4 0 0.7 0.8 0.4 0.8 0.2 1 0.2 1.5 0.1 1.2-0.2 1.2-0.7 0.9-1.6 0.4-3.8-1.5-1 0.2-0.3 1.1 0.1 1.6 0.4 1.5 0.4 0.9-1.8-0.7-1.6-1.7-1-2.1-0.4-1.7-0.8-1.1-0.1-0.2-0.2-0.3 0-2-0.6-0.6-1-0.4-1.1 0.1-0.6 0.9 0.7 1.6 0.4 7.4 1.3 3.5 0.3 2.2 0.7 2.5-0.1 1.1-0.5 0.5-0.9-0.4-2.8-2.2-0.2-0.3-0.3-0.7-0.6-0.3-0.8-0.2-0.5-0.1-0.9-0.9-0.4-0.7-0.6-0.5-1.2-0.2-2.4 0-1.1-0.2-0.8-0.5-0.8-1.8 0-0.1 0.4-2.1 0.7-2.2 0.5-2-0.1-1.3-0.4-1.5-0.8-1.2-1.1-0.5-0.6-0.6-0.2-1.3 0.1-1.5 0.4-2.5 0.1-0.5 0.3-0.4 0.7-0.9 0.1-0.3 0.1-2.5 0.2-1.1 1.4-3.4 0.1-1 0-2.5-1.2-5.3-0.2-0.5-1.9-1.7-0.3-0.4-0.3-1-0.5-1-1.4-1.9-2.3-1.7-0.3-0.3-0.4-0.9-0.8-0.5-1-0.1-1.1 0.2-1.1 0.3-0.7 0.6-0.1 0.9 0.6 1 0.3 1-0.5 1.2-0.8 1.1-0.6 0.6-0.7 0.2-0.4 0-2-1.5-0.1-0.2-0.9 0.3-0.3-0.2-0.2-1.5-0.3-0.2-0.6 0.1-0.7 0-0.6 0.2-0.3-0.3 0.1-1 0.2-0.7 0.7-1 0.2-0.9-0.2-1.1-0.3-0.4-0.5-0.4-0.5-0.8-0.1-0.9 0.3-0.8 0.4-0.6 0.3-0.9 0.5-0.7 0.1-0.4-0.1-0.4-0.3-0.7-0.3-3.4 0-5-1 0.1-0.9-0.6-0.8-0.9-0.3-1 0.2-0.5 0.8-0.6 0.1-0.5-0.8-0.2-0.7-0.3-0.4-0.4 0.8-0.4-0.2-0.4-0.6-0.6-0.3-0.6-0.1-0.9-0.8-1.2-0.8-3.3 0.2-0.8 0.2-0.1 1.2-0.6 0.1-0.1 0.6 0.3 1.4 1.9 3.2 2.7 0.9 1.1 2 3.4 0.2-2.3 0.3-1.1 0.8 0.2 1.6 1.2 0.6 0.7 1.3 3.4 1.3 1.5 1.9 0.8 2.6 0.1 1.9-0.5 1.7-0.9 2.7-2.4 2-2.9 0.7-0.4 0.5 0.1 1.1 0.5 0.6 0.1 0.2-0.1 0-0.5 0.2-0.1 0.3 0.1 0.2 0.2 0.1 0.3-0.1 0.1 1.4-0.1 0.5 0.1 0.5 0.3 1.2 1 0.3 0.2 0.4 0.6-0.1 1.3-0.3 1.3-0.5 0.8-0.1 0.7 0.1 0.6 0.2 0.3 0.1 0.1 0.1 0.6 0.1 0.2 0.3 0.3 0.2 0.1 0.1 0.1 0.3 0.1 0.7 0.3 0.4 0 0.3 0.2 0.2 1.4 0.3 0 0.2-0.5 0.1-0.6 0.4 0 0.1 1.7-0.1 0.5-0.1 0.5-0.5 0.9-0.1 0.3 0.1 0.7 0.5 1 0.1 0.5-0.1 1.8 0.8 5.1-0.1 2.3-2.1 6.7-0.4 2.6 0.4 2.3 0.7 0.7 3.3 1.5 1.3 0.4 0.4 0.2 0.2 0.5 0.4 1.6 2 2.4 0.1 0.1 0.3 0.5 1 0.4 0.1 1.1-0.6 2.8z m-48-4.7l0.6-0.7 0.4-1 0.1-0.7 0.2-0.9 0.3-0.8 0.4-0.6 0.8-0.4 0.7 0 0.8 0.4 0.5 0.7 0.3 0.6 0.2 0.7 0.1 1.4-0.6 0.7-4.2 2.1-0.9-0.7 0.3-0.8z m7.8-5.2l1.7 0 2 1.1 0.9 1.5-0.6 1.3-2.5 0.6-2.9-1 0-1.9 1.4-1.6z m73.1 0.7l-1 0.1-0.6-0.1-0.4-0.3-0.6-0.6-0.5-0.4-2-0.9-1-0.7-0.3-1.4 0.4-1.4 1.2-0.7 1.2 0.5 0.7 2.7 0.9 1 0.8 0.1 1.7-0.1 0.8 0.3 0.5 0.8-0.3 0.6-0.7 0.4-0.8 0.1z m-23.8-88l0 0.4 0 0.3-0.3 0.3 0.6 0.3 0.6-0.2 1-0.8-0.3 1 0.5 0.2 2.1-0.1 1 0.5 1.8 1.5 0.8-0.1 0.3 0.6 1.2 1.5 0.5 1.5 0 0.6-0.9-0.5-0.4 0.4-1.3 0.2-0.5 0.2 0.5 0.2 0.4 0.2 0.3 0.3 0.3 0.4-1.5 0.4-0.7 0.2-0.4 0.5-0.1 1.1 0.6 0.2 1.7-0.1-0.1 0.2-0.1 0.4-0.1 0.1 0.4 0.4 0.7 0.7 0.5 0.8 0 0.6-1.8 1.5-0.5 0.6-0.6 1.1-1 1.3-0.3 0.9-0.1 1.1 0.1 1.2 0.1 0.3 0.6 1.6-0.1 1.7 0.1 0.5 0.3 0.4 1.4 1.3 0.2 0.5-0.2 0.5-0.4 0.3-1.4-0.5-0.5 0.9 0.1 1 1.1-0.4 0.6 0 0.5 1.1 0.5 2-0.1 1.4-0.5 0.3-0.6 0.1-0.6 0.8 0.7 0.3-0.2 0.6-0.4 0.6-0.1 0.8 0.2 0.5 0.3 0.1 0.4 0.1 0.4 0.2 0.2 0.4 0 1.3 0.2 0.9 0.2 0.5 1.2 1.7 0.4 0.9 0 0.8-0.6 0.9 0.5 0 0.2 0.1 0.4 0 0.4-0.1 0.3 1.3 0.2 0.6 0.4 0.3 0.6 0.2 1 0.8 0.6 0.1 0.1 0.3 0.6 0.7 0.7 0.6 0.3 0.1 0 1.4-0.2 0.9-0.4 0.7-3.3 2.5-0.6 1.1 0 2 0.9 1 1.5 0.2 1.7-0.6-0.8-1 0-0.8 0.7-0.2 2.5 1.8 1 0.6 0.7 0.8 0.3 1.6 0.9 1.7 1.7 1.8 1 1.8-1 1.6-0.5-0.4-1.2-0.7-0.5-0.4-0.5-1.8-0.1-0.1-0.1-0.2 0-0.3 0-1-0.1-0.2-0.3-0.1-0.8-0.4-0.2-0.3-0.8-0.6-0.8-0.4-0.4 0.4-1.8 1.1-0.5 0.2-0.7-0.2-0.2-0.6-0.1-0.6-0.4-0.5-0.6-0.2-0.3 0.1-0.4 0.3-0.6 0.2-0.2 0.4-0.2 1.9-0.2 0.7-1.5-1.4-0.9-0.6-0.7-0.1-1 1.2-0.6 0.5-0.8 0.4-0.1-0.9-0.4-0.5-0.5-0.1-0.5 0.7-1.3-1.1-0.5-0.4-2-0.3-0.3-0.2-0.2-0.4-0.6 0.1-1.6 0.6-0.3 0.4-0.2 0.5-0.7 1-0.1 0.4-0.3 0.1-0.3-0.1-0.4-0.2-0.4-0.4-0.4-0.7-0.2-0.8-0.3-2.9-0.6-2.3-1.4-2.1-2.1-0.9-2.4-0.2-2.5 0.2-2.2-0.4-0.5-1.5 0.5-4.5 0-0.4 0-0.4 0.1-0.3 0.3-0.4-0.4-0.2-1.1-0.9-0.4-0.2-0.7 0-0.4-0.2-0.7-0.5-0.7-0.6-0.4-0.7-0.4-0.8-0.8 1.7-0.4 0.3-1-0.1-0.7-0.3-0.6-0.5-0.5-0.6-0.4-0.9 0.8-0.4 0.5-0.5 0.4-0.5 0.5-0.4 0.9-0.3 0.7-0.1 0.2-0.3-0.7-0.8 3.1 0 0.7-0.4 0.9-0.9 0.8-1 0.4-0.7 0-0.9-0.3-0.8-0.2-0.8 0.3-0.7 1.2-1.3 0.8-1.2 0.3 0.3 0.9 0.5-0.1-1.3-0.6-1.1-0.9-0.7-1.2-0.3-0.9 0.3-2.2 1.3-1 0.3-1.9-1.1-3.1-4.6-2.1-0.7 0-0.4 0.3 0 0.4 0-0.5-0.2-0.2-0.1 0.7-1.5 0.2 0.1 0.3 0.1 0.3 0.2 0.3 0.3-0.2-1.1-0.8-0.6-0.8 0-0.9 1-0.9-0.2-0.5-0.5 0.8-0.5-0.3-0.5-0.3-0.2-0.4 0-0.5 0.4-0.1-1.5-0.2-0.8-0.2-0.6-2.7-2.8-2.1-0.9-2.1-0.5-1.7 0.2-1.5-0.8-2.6-1.7-2.5-3.1-1.1-1.1 0.1-0.1 0.2-0.3-1.3-0.7-0.9-1.5-1.1-3.8-1.5-5.2-3.5-8.1-0.1-0.8 0.1-0.6 0.4-0.7 0.5-0.5 0.6-0.2 0.4 0.2 2.5 1.9 0.2 0.1 0.6 0 1.4-0.6 0.4-0.1 0.3 0.1 1.4 0.6 0.8 0.3 3.4 0 0.2 0.1 0.6 0.4 0.1 0.1 0.2 0.3 0.2-0.1 0.3-0.2 0.2-0.1 1.3 0.1 1.1 0.2 4.5 0.4 10.1-0.8 0.5-0.1 0.5-0.4 0.5-0.8-0.3-0.5-0.5-0.5-0.2-0.6 0-0.4 1 0.3 0.7 0.6 0.5 0.7 0.5 0.3 0.8-0.4 0.9-0.5 0.8-0.2 0.3 0.9 0.5-0.1 1.2 0.5 0.9 0.6 0.2 0.2 0.3 0.1 0.3 0.2 0.3 0.2 0.7 0 0.4-0.2 0.7-0.4 0.5-0.4 0.3-0.4 0.1-1.1 0.5-0.3 1.6 0.5 0.5-0.1 0.5-0.2 0.5-0.1 0.5 0.2 1.2 1.3 2.7 1.7 1.3 1.1 0.1 1 0.6 0.6 1.1 0.7 0.5 0.6 0.6 1.4 0.4 0.5 0.8 0.7-1 0.6-0.9 1.2-0.3 1.4 1.1 1-0.3 0.2-0.2 0.3-0.2 0.7 0 0.3 1.6-1 0.6-0.2-0.1 0.5z m-39.6 44.4l-0.4 0.6-0.9 0.3-3.2 0-1.3-0.4-1.1 0-0.2 0.5-0.2 0.3-0.4 0-0.3-0.2-0.2-0.3-0.1-0.4-0.1-0.2-1.8-1.9-0.7-0.9-1.4-3.8-0.3-1.2-0.2-0.5-1.2-1.4-0.3-0.5 1 0.1 2.7-0.8 0.7-0.1 2 0.2 1.5-0.2 0.5 0.1 0.9 0.4 1 0.6 0.8 0.8 0.6 2 1.3 2.7 0.4 0.6 1.2 0.6 0.2 1.1-0.5 1.9z m11.4-6.3l0.6 0.3 0.9 0.2-0.2 0.5-0.1 0.6-0.1 1.3-0.2 0.6-0.3 0.5-0.4 0.2-1.3-1.5 0.1-0.2-0.1-0.5-0.3-0.3-0.8 0.7-0.7-1.9 0.3 0.1 0.4 0.2-0.1-0.9-0.5-0.8-0.7-0.6-0.7-0.3-0.5-0.2-0.3-0.6-0.1-0.7-0.2-0.5-0.4-0.6 0-0.4 0.6-1.1 0.3 0 0.1 0.1 0.6 0.6 1.8 1.1 0.2 0.2 0.2 0.2 0.1 0.3 0.1 0.4 0.1 0.3 0.8 0.4 0.2 0.5-0.1 0.8 0.3 0.6 0.4 0.4z m-32.1-24.7l-1.1 0.2-0.6 0.4-1.1 0.8-0.7 0.1-0.8-0.4-0.2-0.5 0.4-0.6 0.6-0.6 0.9-0.3 1.3 0 1.2 0.4 0.1 0.5z m-4.3-19.2l-0.7-1.3-0.1-1.2-0.1-0.6 0.5 0.1 1 0.7 0.8 1.3 0.3 1.4-0.7 0.5-1-0.9z" id="PH08" name="Eastern Visayas">
  </path>
  <path d="M541.4 450l0.1-0.2 2.9-1.5 7.5-0.9 3.3-0.8-18-8.7-1.1-0.1-1.3 0.3-0.8 0.5-0.9 0.7-1.4 1.4-1.1 0.7-1.5 0.6-1.1-0.2 0.1-0.8 0.4-0.3 0.9-0.7 0.6-1 0.1-1.2-0.2-0.4-0.7-1.1-0.2-0.4 0.2-0.7 0.4-0.4 0.3 0 0.2 0.7 0.4 0 0.1-0.5-0.1-0.5-0.1-0.3-0.3-0.2 1 0 0.6-0.4 0-0.6-0.7-0.7 0.1-0.5 0.8-1.7 0.4-0.7 0.3 0.8 0.5-0.3 0.5-0.7 0.2-0.9 0.8 0.4 0.7-0.4 0.7-0.6 0.7-0.6 0.7 0 0.6 0.3 1.3 0.9-0.2-0.3-0.6-0.9 1.3-0.1 2.5 1.1 1.4 0.2-0.1 0.8 0.3 0.5 0.5 0.1 0.4-0.6 0.2 0.8 0.5 0.6 0.5 0 0.3-0.7 1.5 0.2 0.7 0.2-0.9-1.4-0.1-1.3 0.4-0.6 1 0.7 0.3-0.5 0.4 1 0.5 0.7 0.8 0.1 0.9-1 0.3 0.4 0.2 0.2 0.4 0.1 0.8 0.1 0.1 0.2-0.1 0.2 0.1 0.3 0.9 1 0.4 0.1 0.8 0.1 1.5 0.3 1.1 0.7 1.6 2 0.1 0.3-0.1 0.4 0 0.3 0.2 0.1 0.7 0.1 0.3 0.1 0.3 0.2 1.2 1.9 0.6 0.5 2 2.2 0.5 0.7 0.5-0.3 0.6 0.2 0.5 0.6 0.3 0.7-0.2 0.8-0.4 0.7-0.3 0.8 0.1 1.1 1.1 1.1 1.4 0.8 0.1 0 0.2 0.8-0.2 2.5 0.4 1.5 0 0.5-0.3 0.5-0.4 0.1-0.4 0.1-0.4 0.4-0.2 0.6-0.4 2.2-0.1 0.6 0.1 2 0.9 1 1.2 0.8 1.1 1.1 0.4 0 1.1-0.6 1.3 0 2.9 0.2 0.5-0.1 1.7-0.7 0.6-0.3 1.8-2.2 0.4-0.6 0.1-0.4 0.2-0.4 0.1-0.3-0.4-0.7-0.6-2-0.9-1.3 0-0.8 1.8-1.3 0.2-0.2 0.4-0.3 0.3-0.7 0.2-0.9 0.1-0.7-0.6 0.5-0.7 1.7-0.4 0.4-0.8 0-0.5-0.1-2.5-1.5-0.6-0.7-0.2-0.9 0.5-0.5 0.9-0.3 0.5-0.4-0.8-0.5 1.1-0.4 0.1-0.7-0.5-1.4 0.5-0.3 1.1 0.4 1.7 0.9 0-0.4-0.2-0.2-0.5-0.6 1.5 0.1 0.4-0.1-0.1-0.4-0.4-0.9 0.3-0.2 0.7 0.3 0.4 0.8 0.5 2-0.9 0.2-0.2 0.6 0.2 0.7 0.4 0.1 0.9-0.9 0.5-0.3 0.6-0.1-0.3 0.4-0.5 1.1 0.6-0.2 0.2-0.1 0.3 0.3-0.2 1 1 1.5-0.4 0.9 0.4 0.5 0.2 0.6 0.1 0.6 0 0.6 0.4 0 0.3-0.7 0.4-0.5 0.4-0.7 0-1.1 1.1 0.3 0.7 0.3 0.4 0.6 0.4 1.1 2.5-0.3 3.9 1.6 3.7 0.6 1.6-2.7 1.2 2.1 1.7 1.8 2.1 1.4 3.8 1.7 0.2 0.2 0 0.2 0.2 0.1 0.7 0.2 1.3 0.1 0.6 0.2 0.3 0.3 0.8 1.6 0.9 0.8 0.2 0.6-0.4 0.8-0.9-0.7-0.3-0.4-0.3-0.4-0.3 0-0.1 0.2-0.3 0.5-0.7-0.3-1-0.3-1.8-0.1-0.4 0.5-0.8 1-1 1-1.1 0.5-1-0.2-1.9-1-2.9-0.5-1.2 0-0.5 0.4-0.5 0.4-1.1-0.4-1.3-0.6-0.8-0.4-0.9 0.4-0.6 0.7-1.7 4.6-0.1 1.1 0.5 0.1 0.2 0.2-0.2 0.3-0.1 0.3 0 0.3 0 0.6 0.1 0.6 0.4 0.1 0.4-0.1 0.5-0.5 1.8 2.3 0.2 0.4 0.4 0.4 3.3 1.7 0.7 0.8 1.4 2.4 0.2 0.2 0.7 0.4 0.2 0.3 0 0.6 0 0.5 0.3 1.5 0.6 1.3 0.9 0.9 0.9 0.3 1 0.5 0.6 1.2 0.8 2.4 0.2-0.9 0.6 0.2 0.6 0.8 0.4 0.7-3.5-0.2-1.2 0.5-0.4 1.4-0.2 0.9-0.2 0.8-0.1 0.7 0.1 0.8 1 1.6-0.2 0.7-1.1 0.3 0 0.5 0.2 0.3 0 0.3-0.2 0.5 1.1 0.6 0.4 0.1 0.7 0 0.5-0.2 0.8-0.7 0.3-0.2 2-2.6 0.3-0.5 0.2-0.5 0.4-0.4 0.6-0.1 0.6 0.1 0.6 0.8 0.5 0.2 0.5 0 0.4 0.2 0.2 0.2 0.1 0 0 0.5 0.4 0.1 1.9 0.5 0.7 0.4 0.8 0.6 0.7 0.7 0.3 0.7 2.4 2.1 0.6 0.4 0.5-0.5 1.1-2.3 0.2-0.8 0.6-0.2 1.2 0.3 1.3 0.5 0.6 0.4 0.2 0.9-0.2 1.1-0.4 0.6-0.7-0.4-0.6 0.8-0.4 0.7-0.5 1.5-0.9 2-0.2 0.5 0.2 0.9 0.7 1.2 0.5 3.5 0.1 1-0.8 6.6-0.3 0.8-1.5 1-0.4 0.8 0.2 0.9 0.2 0.6 0 0.4-0.7 0.6 0.2 0.3 0.5 1.2-0.7 0.2-0.8 0.6-0.7 0.2-0.7 0.1-1.7-0.1-1.4-0.5-1.3-1.2-1.5-2.3 0.1-0.6-0.2-0.1-0.3 0.1-0.5 0.2-0.8-1-1.1-0.5-0.5-0.8-0.4-1.1-1.1-2 0.1-1.1 0.2-1.1 0.1-1.1-0.4-1.4-0.6-0.5-0.9-0.4-1.1-0.7 1.4 0 1-0.5 0.8-0.7 0.5-1.1 0.6 0.3 0.9 0.9 0.4 0.3 0.5 0.2 0.3 0 0.3-0.1 0.5-0.1 0.7-0.1 0.2-0.5 0-0.5 0.2-0.5 0.6-0.3 0.5 0.1 0.6 0.2 0.3 0.1 0.9-0.4 0.8-0.7 0.7-1 0.2-1.1-0.5-1.3-1.1-0.4-2.4 0.4-1-0.1-1.6-0.8-0.9-0.2-0.7 0.5-0.4 1-0.3 1.1-0.3 0.8-1.2 1.4-0.9 0.6-1.3 0.3-0.5 0.3-0.3 0-0.3-0.1-0.5-0.5-0.3-0.1-0.3 0.2-0.6 0.9-0.4 0.4-0.2 0-0.3 0.3-0.2 0-0.3-0.7-0.5-0.8 0.6-0.2 0.5-0.4 0-0.3-0.5-0.2-1.4 0.1-0.3 0.1 0.2 0.4 0.2 0.4 0 0.5-1.1-1 0.5-1.2 0.9-1.2-0.3-0.2-0.4 0.2-0.5 0-0.7 0.2-0.3 0.4-0.1 0.5-0.2 0.4-0.4 0.5 0 0.3-0.2 0-0.7 0-0.9-0.2-0.6-0.2-0.4-0.2-1.4-1.7-0.7-0.6-1-0.5-0.6-0.2-0.4-0.1-0.4-0.2-0.6-0.5-0.3-0.5-0.5-0.6-1-0.6-1-1.8-0.5-0.4-1.2-0.2-0.9-0.2-0.9 0-1.2 0.4-1.7 1-1.1 0.3-0.5-0.4-0.3-0.9-0.4-1-0.2-0.9 0.5-0.7-0.8-2 1.4-4.3-0.2-2.1-0.5-0.5-0.4-0.5-2-1.4-0.8-1-0.2-0.5-0.3-0.8-0.2-0.5-1.5-1.6 0.3-1.5-0.5-1.8-1-1.6-1.2-0.7-1.5-0.4-2.8-1.8-1.6-0.4-0.9-0.2-1.2-0.5-0.8-0.1-0.5-0.2-1.3-1.3-3.4-2.4-0.7-0.3-0.7-0.4-1.6-1.9-0.8-0.7 2.6-2.3-2.6-2.9-1.3-1.1-1.7-0.9 0 0.4-0.3-0.4 0.3-0.3 0.7-0.1-0.2-0.5-0.8-0.6-0.7-0.4-2.1-0.4-0.5-0.3-0.7 0.6-0.6 0-0.7-0.3-0.6-0.7 0.1-0.3 0.4-0.2 0.3-0.4-0.2-0.4-1.7-1.7-0.6-0.4-0.7-0.2-0.7-0.2-0.2-0.3-0.2-0.8-0.3-0.4-0.6 0.3-0.1-0.2z m56.7 1.1l-0.2-0.1-0.1-0.1-0.2 0-0.2 0-0.1-0.4-0.1-0.6-0.2-0.4 0-0.3 0.4-0.7 0.1-0.1 0.1 0.3 0.1 0.2 0.2 0 0.2 0.1 0.2 0.2 0-0.1 0-0.4 0.3-0.2 0.3 0 0.3-0.2 0.2 0 0.3 0.2 0.1 0.1 0.1 0.3 0.2 0-0.1-0.4 0-0.2-0.4-0.5-0.1 0.1-0.2 0-0.1-0.3 0.1-0.3 0.2 0 0.5 0.3 0.4 0.4 0.3 0.2 0.2 0.1 0.3 0.6-0.3 0.7-2.6 1.7-0.2-0.2z m25.8 39.7l-1.5-0.6-0.2-0.4 1-0.3 1.6-0.6 0.5-0.3 0.8-0.1 2.2 0.6 1 0.6 0.6 0.9 0 1-0.7 0.3-1.8-0.4-0.8-0.3-0.6-0.2-1.2 0-0.9-0.2z m-1.9-2.9l-0.3 0.5-0.5 0.5-0.4 0.1-0.8 0.2-0.4-0.1-1-0.3-1.2-0.4-1 0-1-0.4-0.9-0.8-0.4-0.7 0-0.5-0.1-0.3 0-0.2 0.1 0 0-0.1 2.6 0.2 1.3 0.6 0.4-0.1 0.4-0.2 0.7 0.1 0.1 0 0 0.1 0.5 0.4 0.3 0.2 0.3-0.1 0-0.3 0.1-0.2 0.4 0 0.5 0.1 0.7 0.2 0.8 0.3 0.1 0.2 0 0.2-0.7 0.3-0.3 0.2-0.3 0.3z m-8.6 0.4l-0.9 0.5-0.6 0-0.5-0.9-0.3-0.3-0.7-1.1-0.1-0.6 0.3-1 0.1-1-0.2-0.7-0.6-0.8 0.2-0.2 0.5-0.3 0.5 0 2.2 0.8 0.3 0.2 0.4 0.2 0.5 0.1 0 0.6-1.4 1.5-0.3 1 0.3 0.9 0.4 0.6-0.1 0.5z m-6.1-8.9l0.9 0.4 0.9 0.7 0.3 0.4 0.3 0 0.6 0 0.1 0.3-0.6 0.6-0.6 0.2-1.2-0.7-1.4-1.5-0.2-0.6 0.9 0.2z m15 89.8l0.3 1.1-0.2 0.9-0.8 0.2-0.7-1-1.1-2.2-0.7-0.7-1.8-1.6-1.5-0.6-1.2-1.3-1.8-0.6-0.8-0.7-1.1-1.6-0.7 0.4-0.9-0.2-2-0.9-1.3 0.5-1.1-0.6-1-1-0.7-0.5 0.3-0.7 0.3-0.5 0.5-0.2 0.8 0-0.8-1.5-0.3 0.5 0 0.2-0.4 0-0.4-0.7-0.7-0.7-0.7-0.6-1.4-0.6-0.4-0.8 0.1-0.7 0.9-0.1-1.1-0.3-1.1 0.1-0.8-0.2-0.6-2.2-0.6-0.9-1.7-1.7-0.7-1.2-0.4-0.3-1.5-0.7-0.5-0.2-0.9-0.4-1.3 0.1-1.2 0.4-0.8 0.4-0.6 0.7-1.7 2.4-0.4 1.4-0.5 0.7-0.5 0.6-0.5 0.2-0.6 0.1-0.3 0.2-0.4 0.8-3 3.5-4.5 4.2-1.2 0.7-0.5-0.6 0.1-1.2 0.3-1.3 0.4-1.1 0.5-0.4 0.6-0.2 0.3-0.3 0-0.5 0-0.7 0.1-0.7 0.3-0.6 0.4-0.5 0.3-0.6-0.1-2.1 0.3-1 0.9 0.4 0.3-0.7 0.4-0.6 0.5-0.4 0.8-0.1 0.4-0.3-0.2-0.6-0.7-1 0.7-0.5 0.7-0.3 0.5-0.5-0.1-1-1.8-0.1-1.2 0.1-1 0.4 0-0.4-0.1-1.6 0.1-0.2 0.1-0.1 1.5-2 0.2-0.8 0.2-1.6 0.8-2.7 0.1-1.3-0.1-0.9-0.3-0.4-0.5-0.4-0.7-0.6-0.6-6.3 0.2-0.7 0.4-0.1 0.5 0.1 0.5 0.4 0.8 0.3 1.6 0.3 0.8 0.2 0.5 0.4 0.4 0.4 0.5 0.3 0.5 0.1-0.1 0.1 0.1 0.2-1-0.2 0.1 0.9 0.9 1.9-0.3 0.5-0.7 0.4-0.6 0.7-0.3 0.9 0.3 0.7 0.6-0.4 1-1.3 0.1 0 0.5 0 0.3-0.1 0.1-0.3-0.1-0.5 0.1-0.2-0.1 0 0.3-0.7 0.4-0.6 0.2 0 0.4-0.4 0.9-0.1 1 0.2 0.8 0.3 1.7 1.7 0.8 0.7 1 0.4 1.8 0 0.3 0.3 0.6 0.9 0.4 0.4 0.5 1.1 0.7 1 0.8 0.5 0 0.3-0.6 0.1-0.4 0.3-0.2 0.5 0.1 0.7 1.8-1 0.8-0.1 0.4 0.9 0.2 0.3 0.5 0.1 0.6 0 0.5 0.1 0.6 0.4 0.4 0.4 0.4 0.5 3.4 5.9 1.4 1.5-0.3-2.5 0.4-0.8 1.2 0.8 1.7 1.7 0.7-0.1 0.6-0.4 0.5-0.1 0.4 0.6 0-0.4 0.5 1.1 2.8 4.6 0.3 0.2 0.8 0.3 0.4 0.2 0.2 0.5 0.5 1.8 0.3 0.5 2.2 2.9 0.6 0.9 0.2 0.9-0.9-0.5-1.1-1.7-0.9-0.7 0.1 0.5 0.3 0.4 0.7 0.9-0.6 0.5 0.2 0.6 1.1 1.6 1.3 2.8 0.2 0.7 0 1.3-0.3 1.5-0.1 0.6 0.2 0.9 0.5 1z m-14.6-31.7l-0.2 0.3-0.5-0.2-0.4-0.4-0.3-0.6-0.1-0.5-0.3-0.5-1.6-1.6-8-11.9-0.1-0.5 0-0.7 0.4 0 0.5 0.2 0.2-0.7 0.2-1.1 0.2-0.7 0.5 0 0.6 0.5 0.9 1.2 2.7 1.5 0.5 0.2-0.1 0.4-0.2 0.2-0.5 0.2 0.8 0 0.6 0.1 0.5 0.4 0.3 0.6-0.2 0.9 0.4 1.1 0.6 1.1 0.3 0.8 0.2 0.9 0.8 1.8 0.6 2.9 0.1 0.2 0.3 0.3 0 0.6-0.1 1.2 0.3 1.1 0.1 0.7z m-23.3-21.6l0.8 2.4-1.8-1.4-3.7-5.1-1.1-1.2-0.7-0.5-2.1-0.4-0.8-0.5-4-3.6-0.5-0.8-0.2 0-0.9-1-0.2-0.3-0.4-0.2-0.2-0.3-0.1-0.5-0.2-0.5-1.3-0.8-3.3-0.8-1.3-1.4-0.3-3.1 0-0.6 0.7-0.5 1-0.1 0.7-0.4 0.2-1.3 0.6 0.1 0.7 0.4 1.2 0.9 0.5 0.5 0.5 0.6 0.8 1.3 1.1 2.2 1.3 1.1 0.2 0.2 0.2 0.7 0.7 1.3 0.2 0.7 0.1 0.1 0.9 1.7 0.9 0.9 1.3 0.9 1.3 0.4 1.1-0.4 0.8 0.4 0.4 0.6 0.2 0.6 0.4 0.6 0.3 2.8 4 4.3z m56.7-62.2l-0.8 0.5-0.7 0.6 0.7 0.4 0.4 0.7 0.1 0.8 0.3 0.7-1 0.4-0.5 0.1 0.4 0.5 0.1 0.5-0.2 1.6-0.3 1.1 0 0.6 0.9 1.5 0.1 0.9-1.2 0.4-1.1 0-0.6 0.1-0.2 0.4-0.1 1-0.8 3.4 0 0.8-0.8-0.6-0.7-1.1-0.7-0.9-0.7 0.3-0.6-0.2-0.9 0.2-0.9 0.4-0.7 0.6-0.4 0.7-0.4 1.1-0.4 1-0.7 0.4-0.9-0.4-2.9-2.6-1.6-1.2-0.9-0.4-1.2 0 0.2-0.7-0.1-0.8-0.5-0.7-0.5-0.6-0.2-0.7 0.5-0.6 1.4-0.8 1.4-1.2 1-1.6 0.8-1.9 0.4-2.1-0.4-3.2 0.2-0.8 0.6-0.9-0.1-1-0.8-2.1-0.2-1 0-0.4 0.3-0.3 0.4-0.4 0.4-0.5-0.2-0.5-0.4-0.8 0-0.9 0.2-0.8 0.4-0.8 0.7 0.9 0.8-0.2 1.1-1 0.5-0.3 0.4-0.1 0.3 0 0.4 0.3 1.1 1 0.9 1.2 0.7 1.3 0.5 1.5 0.1 2.2 0.6 0.2 0.4 0.4 0.7 0.9-0.4 0.5 0.3 0.3 0 0.2 0.1 0.2 0.4 0 0.8-1.4 1.5 0.7 3.2 2.6 0 0.4z" id="PH05" name="Bicol">
  </path>
  <path d="M481.8 379.4l-0.5 0-0.9-0.1-0.6 0.4-0.3 0.7-0.3 1-0.1 0-0.2 0.1-0.3 0.1-0.1 0.4 0 0.2 0.3 0 0.2-0.1 0.1-0.1 0.4 1.3 0 0.5-0.5 1.4-1.1 1.3-1 1.3 0.1 1.5-0.4 0-0.4 0-0.3-0.1-0.4-0.1 0.4 1.9 0.3 6-1.8 0-1.2 1-1 1.3-1.3 0.8-2 0.4-1 1.5-1.1 1.4-0.7 0.9-1.3-0.2-0.4 0.5-0.3 0-0.4 0.1-2.7-0.9-1 0.2-0.5 0.8-1.2 0.5-0.6 0.3-0.4 1.1-1.2 0.4-0.8-0.7-1.1 0 1.1 1.7 0.1 0.6-1.1-0.8-0.7-0.5-0.2 0.4-0.5-0.6-0.3-0.7-0.4-0.4-2.5-1-0.2-0.3 0-0.3-0.2-0.4-0.6-0.1-5.2-0.2-3.4-0.5-0.3-0.1-0.4-0.2-0.7-0.3-0.6-0.5-0.2-0.6 0.1-1.9-0.1-1-0.4-0.7 0 1.7 0 0.5-0.1 0.2-0.6 0.6-0.2-0.4-0.2 0-0.3 0.4 0.6-3.7-0.2-0.9-0.9-0.1-0.4 1.1-0.2 2.4-1.1-0.6-0.4 0.7 0 0.6 0 2.2-0.5 3.6 0.1 1.1 2.1 2.4 0.2 0.6-0.2 0.6-0.1 0.9 1 3.9 0.2 2.5-0.5 2.1-1.3 1.5-2.1 0.3-0.5-0.1-0.3-0.2-0.4-0.1-0.6 0-0.2 0.3-0.1 0.4-0.3 0.3-0.7 0.2-0.2-0.2-0.2-0.4-0.2-0.4-2.5-0.7-0.4-0.2-1.1-1.4-0.3-1.5 0.3-3.4-0.2-1.8-0.6-1.1-2.2-1.5-0.6 0.4-0.5 0-0.5-0.2-0.2-0.5-0.4 0-1.7-2.5-0.6-1.7 1-0.8 0.6-0.2-0.4-0.4-1.1-0.7 0.2-0.6 0.4-0.5 0.5-0.4 0.4-0.5 0.3 0 0.3-0.1 0-0.1 0.3-0.4 0.2-0.6-0.9-0.1-0.4-0.1-0.2-0.4 0-0.6-0.2-0.3-0.4 0-0.7 0-0.5-0.4-0.6-0.8-0.5-0.3-0.8 0.7 0.3 1.3-0.2 1.9-0.5 1.9-0.7 1-0.7 0-1-0.2-0.8-0.4-0.4-0.4-0.3-0.6-1.3-0.5-0.6-0.5 0.5-0.2 0.2-0.3 0.2-0.3 0.2-0.4-0.2 0.1-0.9 0.3-1.2-4.2-0.4-2.1 0.4-5-0.2-2.3-1.9-7.9-0.5-0.6-0.3-0.2-0.1-0.5 0.2-1 0-1.3-0.2-0.4-1.1-1.7-0.9-1.8-0.6-0.9-3-3-0.5-1 0.2-0.5 0.8-0.5 0.1-0.3 0-0.6-0.1-0.3-0.2-0.8 1 0.6 1.1-0.2 0.8-0.9 0.4-1.3-0.1-0.4-0.3-0.4-0.3-0.3-0.2-0.2-0.2-0.3-0.1-0.6-0.2-0.6-0.5-0.4 0 0.2-0.3 0.5-1-2.1-0.1-0.7 0.1-0.6 0.7-1.5 0.3-0.8-0.2-1.6-0.9-0.8-1.1-0.7-0.8-1.4 1.2-0.3 0.3-0.9-0.3-2.1 0.2 0.1 1.5 0.1 1.3-0.2 1.2-0.5 2.2-2.3 1.3 0.1 2.7 1.5 0.8 0.1 1.5-0.1 0.7 0.1 0.6 0.6 0.3 0.9 0.3 1.7 1 2.1 2.8 4.1 0.8 2.2 3.2-1.7 1.3-1.2 1.4-2.9 0.9-1.2 1.1-0.8 1.2 0.2 2.5 1.2 0.7 0.5 0.7 0.2 0.9-0.4 1.6-1.1 1.4-1.4 0.8-1.8 0.6-2 0.7-1.9 0.4 0.6 0.4 0.8 0.6 1.5 5.9-1.5 1.6 0 0.8 0.5 0.6 0.8 1 1.6 0.6 0.2 0.8-0.8 0.7-1.2 0.4-0.8 0.9-2.5 0.4-0.8 0.6-0.6 0.4-0.3 0.5-0.4 0.4-0.8 0.4-2.3-0.5-2.3-1.6-4.6 1.2-1.1 1.9-0.7 1.9-0.2 1.8 0.1 4.3 1 2.3 0.9 1.6 1.1 1 1.8 0.3 1.9 0.2 4.1 0.7 2.4 2.3 4.4 0.9 2.4 9.6-8.2 19.4-16.4 3.4-3.6 8.9-12.6 11.1-0.2-0.3 0.4-0.3 0.5-0.1 0.5 0 1.1-0.2 0.3-0.9 0.7-0.4 0.8 0.1 0.6 0.6 1.6 0.4-0.7 0-0.4 0.4 0-0.4 1.9-1.8 3.5 0.3 1.5 1-0.9 0.9-0.6-0.2 0.8-1.3 2.2 0 0.4 0.1 0.8-0.1 0.4-0.3 0.1-0.9 0.1-0.2 0.1-1.5 2-1.9 1.4-1.6 1.8-0.2 0.1-0.2 0.2-0.2 0.3-0.1 0.4 0 0.4 0.1 0.4 0 0.3-0.8 1.2-2.3 1.5-1 1.1-0.3-0.4 1.1-1.5 0.5-1 0.2-1.1 0.5-0.8 2.5-1.7 0.4-0.9 0.2-1.3 0.5-1.1 1.7-1 0.4-1.1-0.3-0.9-1.5-0.2-1.1 0.5-0.5 0.8-0.2 1 0 1-0.4 0.9-0.8 0.5-2.1 0.6-3.1 1.7-0.7 0.2-2 0.3-1.9 0.5-0.7 0.6-0.6 0.6-0.8 0.5-1.6 0.4-0.6 0.4-0.6 0.2-0.4-0.2-0.5-0.2-0.4 0.2-3.7 3.1-0.3 0.6-1.9 2.3-2.6 1.3-0.9 0.7-0.5 1-0.4 1.1-0.4 2.4 0.1 1.3 0.8 2 0.2 1 0.6 0.5 1.3 0.2 1.2 0.3 0.6 1.1-0.3 0.8-2.3 2.7 0.9 0.2 0.5 0.2 0.5 0.3-2.1 1.2-0.9 0.7-0.4 1-0.3 1-0.6 0.9-2.9 2.4-0.4 0.7-0.5 3.5-0.3 1.1-0.5 0.9-2 2.6-0.9-0.2-0.6-0.3-0.5 0.3-0.4 1.4-0.1 2.5 0.6 2.3 1.2 1.9 1.6 1.3 0.2 0.1z" id="PH03" name="Central Luzon">
  </path>
  <path d="M524.6 306.7l-11.1 0.2-8.9 12.6-3.4 3.6-19.4 16.4-9.6 8.2-0.9-2.4-2.3-4.4-0.7-2.4-0.2-4.1-0.3-1.9-1-1.8-1.6-1.1-2.3-0.9-4.3-1-1.8-0.1-1.9 0.2-1.9 0.7-1.2 1.1-0.7-2.4-0.6-1.1-0.9-0.6-4.8-1.4-0.1-1.7 0.4-1.8 0.8-1.6 1.2-1.2 0.8-0.4 1.4 0.2 0.9-0.5 0.9-1.4 0.9-2.2 0.7-2.3 0.1-1.7-0.2-1.9 0-5.7 17.9-3.1 2.4-0.7 0.6-0.5 0.6-1.2 0.1 0 0.6-0.5 0.2-0.2 0.2-0.3 0.2-0.8 0.5-0.8 0.1-0.5-0.1-0.4-0.1-0.3 0.3-0.6 0.1-0.3-0.1-0.1 0.3-0.2 0.2 0 0.1 0.1 0.1 0 0.6 0 0.4-0.2 0.1-0.5 1.5-0.3 0.4-0.2 0.4-0.4 0.2-0.5 0.2-0.4 0.1-0.2 0.6-0.1 1.5 0.2 0.7-0.1 1.3-0.2 0.6-0.2 0.6-0.4 0.5-0.6 0.8-2 0.5-0.5 0.4-0.2 0.3-0.4 0.3-5.6-0.1-1.1-0.6-2.1 0-1 0.3-2.3 0-6.9 0.1-1.2 1.2-3.1 0.5-4 0.5-1.2 2.4-2.5 0.7-1.4-1-1.6-0.8-0.7-0.8-0.5-0.9-0.4-0.9-0.4-1.2-0.6-0.9-0.9-1.7-2.2-3.7-4.1-1.1-1.5-0.4-0.9-0.6-2.2-0.5-0.8-0.7-0.8-0.7-0.1-0.7 0-1-0.2-1.3-0.9 0-1.1 0.7-1.1 1.1-1.1 0.4-0.8 0.9-2.6 4.6-8.8 0.8-2.4 0.4-2.6 0.1-2.5-0.4-2.2-1.2-1.8-9.5-6.2-2.7-1.3-5.5-1.8-1.4-1-0.3-0.9-0.2-0.9-0.2-0.8-0.7-0.3-0.8 0.2-0.5 0.7-0.4 0.7-0.5 0.6-1 0.8-0.8 0.8-0.9 0.7-1.4 0.5 0.9-6.1 0.5-2 0.7-0.9 1.2-0.6 0.8-0.3 0.5 0 1.1 0.1 0.6-0.1 0.5-0.3 0.6-0.5 0.7-0.4 0.6 0.3 0.4 0.2 0.6 0.2 1.2 0.1 0.6 0.2 0.4 0.4 0.2 0.6 0.4 0.4 2.7 1.3 1.4 1.3 5.3 2.7 0.7 0.7 0.8 0.5 1.7 0.5 4 2.7 0.4 0.2 0.7 0 0.4 0.2 0.3 0.4 0.3 0.5 0.4 0.4 2.5 0.8 1.1 1.5 0.9 1.5 1.1 1 0-0.3-0.8-0.8 0-1.2 0.5-0.8 0.8 0.2 0.7 0.6 9.7 3.8 2.3 0.5 1.1 0 3.1-0.4 0.7-0.3 2.8-1.6 2.1-3.4 0.7-0.5 1-0.2 0.5-0.6 0.1-1.9 1.3-4 0.4-0.7 2.4-0.2 1.2 0 0.8 0.4 0.4 0.9 0.2 2.3 0.3 0.9 0.4 0.6 1.5 1.3 0.5 0.3 1.1 1.5 0.4 2.3-0.3 2.5-0.7 2.4-1 1.8-1.4 1.8-0.8 0.8-1.8 1.3-1.8 1.6-0.3 0.4-0.2 0.8-0.1 0.7 0.2 0.5 0.2 0.4 0.1 0.5 0 1.9 0.3 1.8 0 0.7-2.3 10.5 0 0.6 0.1 1.3 0 0.4-0.3 0.7-0.1 0.4 0.3 0.4 0.7 0.9 0.1 0.4 0.1 5 0.3 1.4 1.2 3 0.4 1.2 0.2 1.4 0.5 1.1 1 1.3 0.8 1.4 0 1.4 0.2 0.6 0.2 0.9 0.2 0.8 0.6 0.4 0.2-0.1 0.3-0.2 0.4-0.1 0.4 0 1 0.9 0.5 0.3 0.6-0.1 1.5-0.6 0.6-0.1 0.9 0.4 0.5 1.7 0.6 0.6-0.2-1.3 0.9 0.5 1.1 1.5 0.4 1.5-1-0.7-0.5-0.3-0.3 0.5 0.1 0.8 0.5 1.6 0.1 0.7-0.1 0.8-0.5 1.7-0.1 0.8 0.4 0.9 1.3 1 0.5 0.7 0.2-0.2 0.4-0.3 0.2-0.2 0.8 0.2 0.5-0.5 0.6-0.4 1 0.7 0.5 1 0 1.1-0.4 1-0.7 0.9-0.2 0.5-0.2 0.7-0.2 0.6-0.5 0.3-0.2 0.3-0.6 1.3-0.7 4.4 0.3 0.9-0.9 1.7-1.4 4-2.6 4.5-0.5 1.6-1 2.4-0.4 0.6-0.7 0.8-1.4 2.9-0.7 1-1.8 1.5-0.4 0.5z m-44.4-134.9l0.7 0.1 0.7 0.6 0.4 0.4 0.4 0.3 0.5 0.1 0.6 0-1.3 0.9-1.2 0.6-1.3 0.3-4.8 0.4-1.2-0.2-0.9-0.9-0.2-0.8 0.3-0.2 1-0.1 2.9-1 1.9-0.2 1.5-0.3z m30.4-3.8l0.4 0.8-0.1 0.7-1.4 0.6-1.1 1.6-0.7 0.8-1.9 1.6-0.7 1-0.3 1.1-0.5 0.5-1-0.1-0.7-0.6 0.3-0.8 0-1.1 1.1-0.9 0.7-1-1.1-1.3 0.6-0.6 0.4-0.9 0.1-0.8-0.1-0.4 0.4-0.2 0.7-1.2 0.5-0.5 0.3 0 0.4 0.3 0.3 0.1 0.2-0.2 0.1-0.1 0.8-0.4 0.3-0.1 0.5 0.2 0.2 0.4 0.3 0.6 0.3 0.4 0.7 0.5z m-41-11.1l0.4 0.3 0.2 0.4 0.4 2.3 0.8 2.1 0.3 2-0.7 1.6-1.9-1.9-0.7-0.8-0.4-1.3 0.2-1.3 0.8-2.4 0.2-1.3 0.4 0.3z m17.1-7.7l0.1 0.2 0 0.2 0.2 0.2 0.1 0.3 0.1 0.4-0.2 0.3-0.5 0-0.5-0.1-0.3 0.1-0.4 0.2-0.1 0.4-0.2 0.3-0.4 0.2-1.5-0.6-0.3-0.3-2.1-1.2-0.3-0.1-0.4 0-0.4 0-0.4-0.3-0.3-0.5-0.6-1.3-1.7-2 0.1-0.3 0.9-0.2 0.6-0.3 0.9-1.1 3 1.1 1 0.1 1-0.2 0.8-0.4 0.6 0 0.6 0.6 0 2.7-0.1 0.2 0 0.2 0.1 0.4 0.6 0.8z m23.8-15.3l0.5 0.3 0.3 0.3 0 0.3-0.3 0.7-0.2 2-0.5 0.8-0.9 0.4-0.8-0.3-1.2-1.3-1-0.6-0.4-0.4-0.1-0.5 0-0.6 0.2-0.2 0.3 0.1 1.1-0.3 0.8 0.2 0.5 0 0.4-0.2 0.6-0.7 0.4-0.1 0.3 0.1z m-7.5-43.9l0.9-0.1 1.1 0.8 0.7 1.1 0 0.9-1.2 1.3-0.5 0.1-0.5 0-0.7-2.7 0-0.7 0-0.4 0.2-0.3z m9-8.2l0.5 0.1 0.4 0.3 0.3 0.5 0 0.5-0.3 0.5-1.9 1.3-1.2 1.1-0.3 0.4 0.1 0.7 0.3 0.5 0.2 0.4-0.2 0.6-0.7 0.7-1 0.4-0.9-0.3-0.3-1.3 0.3-0.9 2.2-3.4 0.1-0.5 0.8-0.7 0.9-0.6 0.7-0.3z m-7.1-16.1l-0.5 1.5-0.9 1.4-1.2 1.2-1.4 0.4-0.9-0.7 0.3-1.5 0.7-1.7 1-1.6 0.8-1.9 0.4-0.6 0.5-0.4 0.6 0 0.4 0.6 0.3 0.8 0.1 0.8-0.1 0.9-0.1 0.8z m3.2-17l-0.4 0.1 0.3-0.5 0.1 0.4z m0.5-2.9l0.2-0.3 0.2 0.2-0.3 0.6-0.1-0.5z" id="PH02" name="Cagayan Valley">
  </path>
  <path d="M466.1 404.3l-0.6 0.9-0.3 0.2 0 0.7 0.5 0.4-0.9 1.7-0.2 1.4 1.3 0.4 0.1 0.5-0.3 1.2-0.8-0.2-0.5 0.4-0.2 0.7 0.4 0.8-0.1 1.1-0.3 0.5 0.3 0.5-0.3 0.4 0.4 1.3 0.5 4 0.4 3.6-4.1 0.2-0.3 0.3-0.2 0.1-0.2-0.2-0.8 0.5-0.6 0.5-0.7 0.2 0.2-1.5-0.2-0.6-0.1-0.2-1.3-2.2-0.7-0.5-0.1-1.5-0.7-1 0.6-0.4 0.1-0.2 0.4-0.5 0.2-1.1-0.2-1.3-1.2-1.9-0.4-1.1-0.2-0.9-0.2-1.4-0.4-0.8-1-1.5 0.2-0.4 0.7 0.5 1.1 0.8-0.1-0.6-1.1-1.7 1.1 0 0.8 0.7 1.2-0.4 0.4-1.1 0.6-0.3 1.2-0.5 0.5-0.8 1-0.2 2.7 0.9 0.4-0.1 0.3 0 0.4-0.5 1.3 0.2z" id="PH00" name="National Capital Region">
  </path>
  <path d="M455.5 197.9l1.4-0.5 0.9-0.7 0.8-0.8 1-0.8 0.5-0.6 0.4-0.7 0.5-0.7 0.8-0.2 0.7 0.3 0.2 0.8 0.2 0.9 0.3 0.9 1.4 1 5.5 1.8 2.7 1.3 9.5 6.2 1.2 1.8 0.4 2.2-0.1 2.5-0.4 2.6-0.8 2.4-4.6 8.8-0.9 2.6-0.4 0.8-1.1 1.1-0.7 1.1 0 1.1 1.3 0.9 1 0.2 0.7 0 0.7 0.1 0.7 0.8 0.5 0.8 0.6 2.2 0.4 0.9 1.1 1.5 3.7 4.1 1.7 2.2 0.9 0.9 1.2 0.6 0.9 0.4 0.9 0.4 0.8 0.5 0.8 0.7 1 1.6-0.7 1.4-2.4 2.5-0.5 1.2-0.5 4-1.2 3.1-0.1 1.2 0 6.9-0.3 2.3 0 1 0.6 2.1 0.1 1.1-0.3 5.6-0.3 0.4-0.4 0.2-0.5 0.5-0.8 2-0.5 0.6-0.6 0.4-0.6 0.2-1.3 0.2-0.7 0.1-1.5-0.2-0.6 0.1-0.1 0.2-0.2 0.4-0.2 0.5-0.4 0.4-0.4 0.2-1.5 0.3-0.1 0.5-0.4 0.2-0.6 0-0.1 0-0.1-0.1-0.2 0-0.3 0.2 0.1 0.1-0.1 0.3-0.3 0.6 0.1 0.3 0.1 0.4-0.1 0.5-0.5 0.8-0.2 0.8-0.2 0.3-0.2 0.2-0.6 0.5-0.1 0-0.6 1.2-0.6 0.5-2.4 0.7-17.9 3.1 0 5.7 0.2 1.9-0.1 1.7-0.7 2.3-0.9 2.2-0.9 1.4-0.9 0.5-1.4-0.2-0.8 0.4-1.2 1.2-0.8 1.6-0.4 1.8 0.1 1.7-3.1 0.6-1.5 0.1-1.5-0.3-4.7-1.8-1.6-0.4-1.1-2.9-0.9-3.3-0.9-6.7 0.6-3 1.7-2.8 4.3-4.8 1.3-2.3 1-9.3 1.3-2 2-0.5 2.2 0 1.8-0.9 0.8-2.1-0.1-2.2-0.3-2 0-2.1 0.6-2 1-2 1.4-1.6 2-0.7-2.1-1.2-1.2-0.4-0.9 0.3-1.2 1.6-1 1.1-1.3 0.1-1.7-1.2-0.7-1.2-0.2-1.2 0-1.1-0.4-1.2-0.5-0.4-1.4-0.1-0.6-0.2-0.4-0.5-0.2-0.5-0.3-0.5-0.5-0.1-1.6-0.2-1.2-0.7-0.8-1.1-0.1-1.7 0.7-1.4 1.2-1.6 0.9-1.7 0-1.6-0.7-0.7-1.2-0.4-1.3-0.2-1 0.1-1.6 0.4-0.5-0.3 0.8-5 0.8-2.3 1.1-2.3 1.1-1.9 0.8-1.6 1.1-1.8 1.2-1.8 1.2-1.3 1.5-0.8 1.4-0.2 1.4-0.5 2.4-2.6 1.5-1.1 3-1.8 1.5-0.2 1.8 0.1 1.5-0.2 1.1-1-0.2-0.6 0-0.3 0.7-0.8 0-1.4-0.4-3 0.1-1.3 0.3-1 0.5-0.9 1.2-1.6 0.2-0.6-0.2-0.6-0.4-0.7-0.8-0.5-1.1-0.5-1-0.6-0.4-1 0.1-0.8 0.5-0.3 0.6-0.2 0.6-0.5 0.6-1.1 0.1-1.2-0.2-1.2-0.2-1.1-0.2-1.3 0.5-2.7 0.1-1.3z" id="PH15" name="Cordillera Administrative Region">
  </path>
  <path d="M451.8 329.6l1.6 4.6 0.5 2.3-0.4 2.3-0.4 0.8-0.5 0.4-0.4 0.3-0.6 0.6-0.4 0.8-0.9 2.5-0.4 0.8-0.7 1.2-0.8 0.8-0.6-0.2-1-1.6-0.6-0.8-0.8-0.5-1.6 0-5.9 1.5-0.6-1.5-0.4-0.8-0.4-0.6-0.7 1.9-0.6 2-0.8 1.8-1.4 1.4-1.6 1.1-0.9 0.4-0.7-0.2-0.7-0.5-2.5-1.2-1.2-0.2-1.1 0.8-0.9 1.2-1.4 2.9-1.3 1.2-3.2 1.7-0.8-2.2-2.8-4.1-1-2.1-0.3-1.7-0.3-0.9-0.6-0.6-0.7-0.1-1.5 0.1-0.8-0.1-2.7-1.5-1.3-0.1-2.2 2.3-1.2 0.5-1.3 0.2-1.5-0.1-0.2-0.1-0.1-0.2 0.2-1 0.3-0.8 0.1-0.9-0.2-1.1-0.9-2.3-0.6-1.1-0.7-0.8-1.4-0.4-0.8 0.8-0.7 0.9-0.8-0.2-0.2 0.3-0.6 0.5-0.8-1.6 0.1-6.4 0.2-1 0.8-2.3 0.1-1.1-0.1-0.5-0.8-0.9-0.2-0.6-0.1-1.7 0.1-0.7 1-3.6 0.3-2.3 0.5-1.1 0.6-0.9 0.6-0.6 0.2 0 0.6 0.1 0.3-0.1 0.9-0.6 0.2-0.1 0.9-0.3 1.1-0.1 1.3 0.4 0.6 0.9 0 1.1-1.3 5.3 0.7 0.4 2.4 0.6 0.5 0.3 0.4 0.5 1.5 1.6 0.5 0.4 1.2 0 0.7 0.1 0.6 0.4 1 1 0.4-0.1 0.2 0.2 0.5 3.6 0.3 1.1 0.7 0.8 1.1 0.5 2.5 0.7 1.2 0 1.2-0.2 0.9-0.6 0.5-0.2 1.9-0.2 0.8 0.6-0.4 1.5 0.6-0.5 0.6-1.2 0.6-0.6 0.4 0.2 0.6 0.1 0.6-0.1 0.2-0.6-0.3-0.4-0.7 0.1-0.7 0.3-0.5 0 0.2-0.8 1.9-1.6 0.5-0.8 0.2-0.6 1.1-1.1 0.2-0.7 0-2.2 0-0.2-0.3-1.1-0.6-1.3-1.7-2.2 0 1.1-0.3-0.4-0.3-0.4-0.3-0.3-1.3-9.2-0.7-2.1 0.4-2.9-0.5-1.3-0.7-1.4-0.5-1 0.5-0.5 0 0.2 0.2 0.1 0.4 0.1 0.6 0 0-0.4-0.3-0.7 0.1-1.2 0.2-1.3 1-2-0.1-1.1-0.4-1.3-0.2-1.2 0-1.2 0.2-0.6 0.2-0.5 0.3-0.7 0.4-0.3 0.4-0.3 0.5-0.5 2.6-3.8 1.5-2.4 0.4-1.2 0.1-1.4-1-9.6-0.2-0.3-0.5-0.8-0.1-0.4 0-0.9 0.5-2.4-0.2-3.3 0.2-0.3 1-1.1 0.4-0.6 0.2-0.5 0.1-0.5 0-0.7-0.4-1.9-1.8-4.2 0-1.2-2.4-0.6-0.9-0.5-0.4-1 1.1-6.8 0.5-0.5 1.2-0.2 0.9-0.4 0.5-0.9 0.3-1 0-0.8-0.5-0.8-0.6-0.7-0.3-0.6 0.4-0.8 1.3-1.5 0.3-0.8 0.1-1.3-0.2-1.9-0.1-0.5 0.2-0.8 1.2-1.8 1.2-2.4 0.2-0.7 0.1-1-0.1-1.2-0.2-1.2-0.3-0.7 0.1-0.8 3-6.4-0.1 0.1-0.2-0.2-0.1-0.3 0-0.3 0.2-0.2 0.2 0 0.2-0.2 0.1-0.2 0.3-0.7 1.6-3 0.7-1.8 0.4-2.2-0.1-2.4-0.6-2.1-0.6-1.5-0.1-0.9 0.5-0.9 1.1-1.1 1.1-1 0.9-0.1 2.2 0.5 1.2-0.1 2.4-0.9 1-0.2 0.9-0.5 0.2-1.1 0-1.3 0.2-1 0.7-0.8 1.1-0.5 1.2 0 0.8 0.4 0.9 1 1.3 2.3 1 0.7 0.9 0.1 1.1-0.4 0.9-0.5 0.4-0.5 0.4-0.5 0.9-0.4-0.7 0.9-0.5 2-0.9 6.1-0.1 1.3-0.5 2.7 0.2 1.3 0.2 1.1 0.2 1.2-0.1 1.2-0.6 1.1-0.6 0.5-0.6 0.2-0.5 0.3-0.1 0.8 0.4 1 1 0.6 1.1 0.5 0.8 0.5 0.4 0.7 0.2 0.6-0.2 0.6-1.2 1.6-0.5 0.9-0.3 1-0.1 1.3 0.4 3 0 1.4-0.7 0.8 0 0.3 0.2 0.6-1.1 1-1.5 0.2-1.8-0.1-1.5 0.2-3 1.8-1.5 1.1-2.4 2.6-1.4 0.5-1.4 0.2-1.5 0.8-1.2 1.3-1.2 1.8-1.1 1.8-0.8 1.6-1.1 1.9-1.1 2.3-0.8 2.3-0.8 5 0.5 0.3 1.6-0.4 1-0.1 1.3 0.2 1.2 0.4 0.7 0.7 0 1.6-0.9 1.7-1.2 1.6-0.7 1.4 0.1 1.7 0.8 1.1 1.2 0.7 1.6 0.2 0.5 0.1 0.3 0.5 0.2 0.5 0.4 0.5 0.6 0.2 1.4 0.1 0.5 0.4 0.4 1.2 0 1.1 0.2 1.2 0.7 1.2 1.7 1.2 1.3-0.1 1-1.1 1.2-1.6 0.9-0.3 1.2 0.4 2.1 1.2-2 0.7-1.4 1.6-1 2-0.6 2 0 2.1 0.3 2 0.1 2.2-0.8 2.1-1.8 0.9-2.2 0-2 0.5-1.3 2-1 9.3-1.3 2.3-4.3 4.8-1.7 2.8-0.6 3 0.9 6.7 0.9 3.3 1.1 2.9 1.6 0.4 4.7 1.8 1.5 0.3 1.5-0.1 3.1-0.6 4.8 1.4 0.9 0.6 0.6 1.1 0.7 2.4z m-47.3-7.3l-0.6 0.1-0.7-0.5-0.2-0.4-1.1-0.9-1.1-1.4-0.6-0.4-0.1-0.5 0.2-0.5 0.9-0.9 0.5-0.2 0.5-0.1 0-0.3 0.2-0.3 0.4-0.3 0.6 0.1 0.4 0.3 0.2 0.3 0.1 0.4 0.4 1.1 0 2.4 0.3 0.8 0.1 0.7-0.4 0.5z" id="PH01" name="Ilocos">
  </path>
  <path d="M603.4 712l-0.6 0.9-0.3 0.3-0.5 0.1-1.5-0.1-0.4 0-0.3 0.2-0.2 0.3 0 0.4-0.2 0.5-0.4 0-0.9-0.3-1.1 0-0.9-0.2-0.9-0.4-4.4-3.1-0.5-0.8 0.2-0.6 1.4-1.2 0.9 0.5 1.3-0.2 1.3-0.7 1.6-1.3 0.4-0.3 0.2-0.3 0.1-0.9 0.3-0.6 0.7-0.2 0.8 0 0.7 0.2 0.5 0.8 0.8 1.6 0.4 0.3 0.9 0.4-0.2 0.7-0.5 0.7-0.4 0.4 0 0.6 0.2 0.4 0.6 0.9 0.2 0 0.7 0.4 0.4 0.4-0.4 0.2z m47.4-32.8l-0.2 0.7-0.5 0.2-1.4 0-1.3-0.2-0.8-0.2-0.2-0.5 0-0.5-0.1-0.5-0.8 0-0.4 0.3-1.6 1.7-0.5 0.3-0.7 0.2-0.6 0.4-0.2 0.6-0.1 0.8-0.1 0.5-0.2 0.6-0.4 0.5-1.5 1.2-2.4 1-2.3 0.7-1.9 0.1-2-0.1-8.4 0.6-6.9-1.2-2.4-0.8-1.1-0.7-0.5-0.9 0.2-1.2 0.4-1.1 0-1-0.6-0.7-0.9-0.1-1.1 0-0.9-0.2-0.4-1 0.1-1.2 0.3-1.2 1.1-2.2 0.7-0.8 1.8-1.6 0.4-0.8 0.2-0.7 0.4-0.1 0.7 0.3 0.5-0.2 0.3-0.4 0.2-0.5 0.3-0.4 1.7-0.7 2.5-0.5 2.2-1 1-1.8 0-1.1 0.3-0.9 0.6-0.5 1.6-0.4 0-0.4-0.1-0.4 0.1-0.5 0.4-0.4 0.7-0.5 0.4-0.2 0.8-1.2 0.4-0.3 1-0.4 2-0.4 2.2 0 3.6-0.5 1 0.5 0.4 2.3 0.6-0.5 0.8-1.4 0.8-0.4 0.1 0.7 0.5 1 0.5 0.7 0.7-0.1 2.4 2.1 0.7 0.5 1.7-0.1 0.5 0.2 1 0.6 1.5 0.8 0.6 0.6-0.2 1.3 0 1-0.2 0.5-0.6-0.9-0.2 1.1 0 0.8-0.1 0.5-0.4 1 0.8 0.7 0.7 1 0 0.9-1 0.4-0.8 0.5 1 1.1 2.9 2.1-1.3 2.9z m-40.5 8.7l-2.1 1.6-1 0.4-1.1 0.1-0.8-0.2-0.7-1.3-0.6-0.5 0.1-0.2 0.6-0.2 0.5-0.2 0.3-0.4 0.6-0.4 0.9-0.6 2.1-0.8 1.1-0.2 1 0.7 0.4 0.5-0.3 0.7-1 1z m40-27l-0.8-0.3-0.7 0.3-0.6 0.9-0.5 0.4-0.6-0.4-0.3-0.5 0-0.5-0.1-0.6 0-0.7 0.3-0.3 0.4 0.1 0.4-0.1 0.2-0.3 0.3-0.2 0.3 0 0.5-0.1 0.7-0.5 0.3-0.3 0.4-0.1 0.7-0.2 0 0.4-0.6 0.9 0 0.9 0.1 0.7-0.4 0.5z m-40.6-8.4l-1.3 0.2-0.8 0.5-1.1 1.5-2.9 2.3-0.4 0.9-0.1 1.1-0.2 0.8-0.5 0.6-0.7 0.6-0.4 0.3-0.7 0.2-0.3 0.3-0.2 0.3-0.3 0.4-0.2 0.5 0 0.4 0 4.3-0.7 2.9-0.1 1.1-0.2 0.4-0.5 0.3-0.5 0.2-0.3 0.2-4.9 11.6-0.3 2.1-0.9 2.6-0.4 1-0.5 0.5-0.9 0.6-0.5 0.4-0.5 0.6-0.7 1.2-2.8 3.4-0.6 0.5-0.9 0.5-0.8 0-0.3-1.2-0.4-3.1 0-1.2 2.7-15.1 2.2-5 0.2-1.1 0.1-1.3-0.2-0.3-1.1-0.5-0.2-0.3 0.2-1.7 0.2-0.4 0.4-0.2 0.3 0.2 0.2 0.3 0.2 0.1 0.2-0.4 0.1-0.5 0-1.2 0.3-1.4 0.7-0.9 2-1.6 1.9-2.1 0.7-1.2 0.7-2.5 2.5-3.5 0.9-3.4 0.4-0.9 1-0.9 4.5-6.1 0.2-0.9 0.1-0.2 0.3-0.3 0.2-0.4 0.2-0.5-0.4-1.8 0-0.7 0.6-1.1 1.3-1.6 0.6-2.2 0.7-1.2 0.8-1.2 2-2.3 1-1.5 3.6-10.2 1-1.7-0.3-1.2-0.6-1.9 0.3-1 0.6-0.7 0.5-0.8 0-1.3 0.4 0 0.2 0.4 0.2 0.3 0.7 0.4-0.6-2.9-0.3-0.6-0.2-0.8 0.4-1.1 0.6-1 2.6-3.5 1.4-1 1.6 0.4-0.1 0.4-0.3 1.6-0.6 1.5-0.3 1.1-0.2 2-0.3 1-1.6 2-0.6 0.9 0.5 0.2 0.2 0.4 0 0.4 0.2 0.2 1.1-0.1 0.5-0.1 0.4-0.2-0.1 1.1 0.5 3.2-0.1 1.2-0.4 1.7 0.1 1 0.7 1.3 0.1 0.6-0.2 0.5-0.8 1.3-0.2 0.6-0.2 1.3-0.9 2.2-0.3 1.2 0.2 2.2 1.4 4.4 0.2 2-0.1 0-0.4 0.2-0.4 0.3-0.2 0.2 0 0.3 0.3 0.2 0.1 0.3-0.1 4.3-0.2 0.9-1.4 3.5 0 0.4 0.5 0.8-0.2 0.5-1.2 0.8-0.1-0.6-0.3-0.4-0.3-0.1-0.4 0.4-0.1 0.4 0.1 2-0.6 0.2-1.4 0.7-1.5 0.8-0.9 0.7-1.2 1.8-0.6 0.4-1.3 0.1z m-4.6-49l-0.7-0.9-1.3-3.5-0.2-1.2 0.2-0.7 0.3-0.6 1-1.1 0.7-0.4 0.4 0.1 0.4 0.6 1.5 4.4 0.6 1 0.6 0.8 0.3 0.6-0.1 0.3-3.5 0.4-0.2 0.2z m-20.4 40.7l-1.1 2.4-0.2 1.2-0.1 3.6-0.2 1.1-1.7 3.3-0.2 1.3-0.1 1.3-0.1 1.1-0.4 1-2.4 3.6-0.5 1.4-0.4 0.3-0.4 0.4-0.1 0.2-0.8 2.5-1.5 1.7-0.7 0.9-0.3 1.3 0.7 9.3-0.3 1.3-0.1 0.6-0.1 0.7-0.4 0.1-0.5-0.2-0.4 0.3-0.1 1.4 2.3 1.6-0.4 1.4-0.5-1.1-0.9 0.6-0.5 1.1 1 0.6 1.5 0.2 0.5 0.6 0 0.9 0.4 1.3 0.7 0.7 1.1 0.8 1.1 0.8 0.8 2.5 0.9 1 1.1 0.9 0.9 1.1 0.4 2.2-0.6 2.5-1 2.2-3 4.3-0.2 0.9-0.5 0.7-3.7 2.3-0.7 0.2-1.9 0-0.7 0.1-1 0.5-1.2 0.2-0.8 0.5-0.6 0.1-2.2-0.7-1.8-1.8-1.3-2.2-2.2-5.4-0.3-3.6-0.3-1-0.6-0.9-1.3-1.3-1-0.7-0.9-0.2-3.5-0.2-1.1-0.2-2.4-1.3-0.7-0.2-0.5-0.2-0.4-0.4-0.4-0.6-0.3-0.3-0.7-0.2-0.7 0-0.6-0.2-0.1-0.3 22.2-28.6 8.1-15 0.7-1.7 0-1.7-1.7-6.5 1.3-0.3 1.4-0.5 1.3-0.5 1.3 0.2 0.3 0.2 0.1 0.2 0.1 0.3 0.1 0.3 0.1 0.4 0.2 0.1 0.3 0 1.3 0.5 3.1 0.6 1 0.1z m34.5 4.4l0.6-0.3 1-0.7 0.2 0.3-0.9 1-1.1 1-0.9 1.1-0.7 0.7-1 0.1-0.6 0.4-0.7-0.5 0.1-1 0-0.9 0.7-0.9 1.7-0.8 0.6-0.2 1 0.7z" id="PH07" name="Central Visayas">
  </path>
  <path d="M584.7 644.2l-1-0.1-3.1-0.6-1.3-0.5-0.3 0-0.2-0.1-0.1-0.4-0.1-0.3-0.1-0.3-0.1-0.2-0.3-0.2-1.3-0.2-1.3 0.5-1.4 0.5-1.3 0.3 1.7 6.5 0 1.7-0.7 1.7-8.1 15-22.2 28.6-0.4-0.7-1.1-1.3-1-0.8-1.1-2.6-0.8-0.6-0.6-0.2-0.4-0.5-1.6-3.4-0.5-0.7 0.4-0.5-0.2-0.5-1-0.9-0.2 0.2-0.6 0.3-0.3 0.2 0.1-0.7 0.4-1.4-0.1-0.9-0.3 0.2-0.8 0.4-0.4 0.2 0.1-2.1 0.3-2 0-1.8-0.8-1.5 0-0.4 0.6-0.6 2.1-3.7 0.9-2.4 0.7-0.4 1.1-0.2 2.3-0.5 1.2-0.1 3.5 0.7 0.9 0.5 0.8-0.5 2.7-0.6 1.1-0.6 2.9-3 1.3-0.9 1.1 0.6 1-0.5 1.4-1.8 0.4-1-0.2-1.3-0.7-2.3-0.4-2.4 0.8-6.6-0.6-2.4-2-4.3-0.4-2.3 0.5-1 1-0.4 1-0.3 0.5-0.3 0.3-0.6 1.9-1.9 0.5-1.1 0.7-1.7 0.1-0.5 2-3.4 0.2-1.2-0.2-3.5-0.2-0.3-0.8-0.5-0.2-0.3 0.1-1.2 0.1-0.4 0.2-0.5 0.5-0.6 1.4-1.7 0.5-0.3 2.4-0.1 1.1-0.2 1.1-0.4 4.4-2.8 2.3-1.1 2.5 0.1 0.1 0.2 0.2 0.4 0.2 0.4 0.4 0.1 1 0 0.3 0 0.6 0.4 0.9 0.9 0.7 0.3 0.6-0.1 1.4-0.6 0.6-0.1 0.7 0.4-0.1 0.4-0.4 0.5 0.1 0.6 0.5 0.3 0.4-0.2 0.4-0.5 0.6-0.4 0.8-0.1 0.6 0.1 0.5 0.2 1.9 0.5 1 0.4 0.8 0.8 0.3 2.2 0.3 0.5 0.7 1 0.2 0.1 0.2 0 0.2 0.1 0.2 0.2 0 0.3-0.2 2.5-0.5 1-1.5 2.2-0.9 2.1-1.7 7.2-0.6 1.3-4.5 4.8-0.6 0.9-0.7 1.6z m-39.2-2.8l-2.1 0.6 0.5-1.5-0.6 0-0.9 0.7-0.3 0.4-0.3 0.2-1 0.7-0.6 0.2-0.3-0.2-0.2-0.5-0.4-1.1 0-0.3 0-0.6 0-0.3-0.3-0.1-0.6-0.2-0.2 0-0.2-0.2-0.5-0.5-0.2-0.6 0.7-0.2 0.6 0 0.6-0.1 0.3-0.2 0.2-0.7 0.1-0.4 0.9-0.4 0.4-0.5-1-0.2-0.4-0.9 0.1-1.2 0.4-0.8 0.6-0.8 0.9-1.7 0.6-0.7 0.8-0.5 1-0.2 0.8-0.3 0.5-2.1 0.6-0.8 0.8-0.6 0.6-0.8 1.6 1.2 0.6 0.3 1.4 2.2 0 3-0.9 3-1.8 4.3-1.2 1.9-1.6 1.5z m25.9-60.3l1.3-1.4 0.8-1.4 0.3 0 0.1 3.3-0.4 0.9-0.4 0.1-0.6 0.1-0.6 0.2-0.3 0.3 0.1 0.6 0.3 0.2 0.5 0.1 0.6-0.1-0.5 0.8 0.4 0.2 1.2-0.2 0.2 0.7-0.3 0.7-0.4 0.8-0.2 0.9 0.2 1.6 0 0.7-0.6 1.1 0 0.3-0.1 0.2-1 0.1-0.2 0.3 0 0.3-0.2 0.5 0.1 0-0.1 1.5 0 0.1-0.3 1-0.1 0.9 0.1 1.9 0.1 0.5 0.4 0.3 0.4 0.3 0.2 0.8-0.3 0.8-1.1 0.8-0.1 0.8-1.2-0.5-1.4-0.4-1 0.3-0.7 2.9-0.7 1-1.1 0.7-1.2 0.5 0.2 0.7-0.2 0.5-1.2 0.7 0.1-0.6 0-0.5-0.3-0.4-0.4 0-0.3 0.2-0.2 1.2-0.3 0.5-0.5 0.1-0.4-0.2-0.4-0.2-0.5-0.1-0.3 0.1-1.2 1 0-0.7-1.3 0.5-1.4 1.1-1.2 1.2-0.5 1.1 0.3 1.7 0.4 1.4 0.2 1.3-0.6 1.7-1.3 1.9-0.9 0.8-0.9 0.3-0.5-0.1-0.9-0.5-0.4-0.1-0.4 0.1-1.1 0.6-0.6 0.2-0.7 0.3-0.6 0.4-0.9 0.7-0.2 0.3-0.5 0.8 0.1 0.1 0.1 0.3 0 0.3-0.5 0.4-0.3 1.2-2.4 0.5-3.9 0.1-1.2 0.1-4.6 0.7-0.4 0.1-0.7 0.6-0.3 0.1-1.8-0.1-0.6 0.1-0.6 0.2-0.7 0.6-0.5 0.3-0.6 0-0.6-0.2-0.6 0-0.6 0.4-2.2 1.8-0.7 0.4-0.5 0.1-0.6 0-0.6 0.1-1.5 1.1-3.3 5.6-0.4 0.4-0.9 0.8-1.8 0.8-1.7-0.1-1.1-1.9 0.1-2.3 2.2-4 0.6-2.3 0-1.2-0.3-3.4-0.4-0.9-1.4-1.5-0.4-1.2 0.1-1 0.8-1.6 0.3-1.7 1-2.8 3.6-6.1 0.4-2.5 0-9.3-0.1-1.2-0.4-1.2-0.1-1.3 0.4-1.1 0.6-1 0.3-1.1 0.4-6.5 0.1-0.2 0.3-0.3 0.3-0.4 1.1-8.9-0.3-2-0.9-1.7-1.3-0.5-1.7 0-2-0.4-1.8-0.8-0.9-0.2-1.1-0.1-2.1 0-0.9-0.1-0.6-0.3 0.1-0.2 0-0.4 0.6-0.8 0.6-0.6 0.4-0.3 0.2-0.5 0.1-1.1 0.1-1.1-0.2-0.6 0.2-0.8 0.2-0.5 0.5-0.2 0.8 0 0.3-0.3 0.7-1 0.4-0.2 0.4-0.1 0.3-0.3 0.2-0.1 0.5 0.2 0.2 0.4 0.2 0.3 0.2 0.3 1.9 0.5 0.6 0.4 1.2 1.6 1 1 1.2 0.8 1.3 0.6 5.9 1.3 2 0.8 1.8 1.3 1.2 1 0.8 0.4 2.2 0.1 0.6 0.4 2.1 3.2 0.7 0.6 0.7 0.2 0.6 0.5 2.5 2.5 3.2 1.3 0.9 0.6 0.2 0.5 0.1 0.3 0.2 1 0.3 0.8 1 0.4 0.3-0.1 0.7-0.5 0.7-0.3 0-0.5-0.1-0.5-0.1-0.3 0.2-0.9 0.4-0.2 0.7 0.5 0.6 0.8 0.4 0.2 0.6 0-0.5-0.7 0.1-0.4 0.4-0.2 0.4-0.2 1-1.2 0.2-0.5-0.2-0.2-0.1-0.2-0.2-0.2 1.7-0.1 2 0.1 2 0.3 1.3 0.8 0.4 0.8 0.3 0.9 0.4 0.7 0.6 0.3 0.7 0.1 2.4 1-2.7 1.9-1 1.2 0 1 1.3 0.5 1.5-0.7 1.5-1.1 1.4-0.5 1.4-0.4 1.9-1.6 2.5-0.7 1.5-1z m-91.2-26.4l-0.2 0.8-0.6 0.7-1 0.1-0.6-0.6-0.4-0.9-0.2-0.8 0-0.4 0.4-1.2-0.2-0.5-0.3-0.4-0.2-0.3 0.3-0.6-0.1-0.4 0-0.2 0.5 0.3 2 2.6 0.4 0.8 0.2 1z m5.8 10l-0.4 0.5-1.2 0.6-1.2 0-0.9-0.3-0.6-0.2-0.3 0-0.2-0.2-0.3-0.2-0.2 0.1-0.4 0.2-0.3-0.1 0.1-0.5 0.6-0.7 0.9-0.3 0.5-0.1 1.2 0.1 1.9 0.6 0.8 0.5z" id="PH06" name="Western Visayas">
  </path>
  <path d="M686.6 796.9l-0.1 0.5 0.5 0.6 0.2 0.6-0.1 0.7-1.7 5.7-0.4 2.8 0 0.8 0.3 1.4 0.1 1.9 0.4 2.4-0.1 1-0.2 0.4-0.6 0.9-0.6 1.4-0.1 0.3 0.7 0.8 0.7 0.7 1.9 1.1 0.7 0.7 0.3 0.9 0.2 3.1 0.2 0.7 0.2 0.2 0.1 0.2-0.3 0.4-0.1 0-0.3 0.2-1.3 0.4-0.3 0.2-0.2 0.2 0 2.5-5.5 6-0.9 3.4 0.3 2.5 0.3 0.7 1.3 1.5 0.4 0.9 0.1 0.8-0.9 5.4-0.5 1.2-0.2 2.8-0.3 1.3-0.4 0.5-0.4 0.3-0.2 0.4 0 0.4 0.1 0.2 0.2 0.1 0.4 0.1 0.5 0.2 0.3 0.2 0 0.3 0 1.1 0.5 0.3 1.3 0.7 0.7 0.5 1.8 1.8 0.8 0.5 0.7 0.2 0.5 0.1 1.4-0.2 2.5 0.4 1.2-0.1 0.5 0.3 0.4 0.3 1-0.5 0.5-0.1 0.6 0 0.5 0.1 1 0.9 1.3 2.5 1.2 1.9 0 0.6-0.3 0.7-0.1 0.7 0 0.6 0.1 1.1 0 0.6 0 0.4 0.4 0.6 0.4 0.5 0.3 0.4 0.2 0.5 0 0.7-0.3 1.5-0.1 0.4-0.2 0.3-0.2 0.3-0.3 0.2 0 1-1.7 5.2-0.1 0.5 0.1 2.8 0.1 0.5 0 0.4-0.3 0.1-0.4 0-0.2 0.2-4.6 10.6-0.7 0.9-0.1 0-0.8 0.6-1.9 1-0.3 0.2-0.2-0.5-0.1-4.2-0.3-1.1-0.4-0.8-0.5-0.6-0.7-0.3-1.2-0.1-0.3-0.2-0.3-0.4-0.2-0.6-0.1-0.5-0.3-0.6-0.5-0.3-0.6-0.1-0.4-0.2-0.6-1.1 0.2-0.8 0.5-0.8 0.2-0.9 0.2-0.8 0.4-0.9 0.9-1.4 2-2.5 0.8-1.6 0.1-2.2-0.2-0.9-0.7-1.9-0.2-0.7-0.5-0.5-0.5 0-0.6-0.1-2 0-0.7-0.6-0.6-0.3-0.5 0.2-0.2 0.5 0.1 1.4-0.1 0.5-0.5 0.8-1.8 5.2-1.3 3.7-1 1.2-1 0-2.6-0.5-2.1 0.7-1.3-0.3-5.4-2.6-1.4-0.4-2.4-1-0.6 0-0.7 0.1-0.5-0.1-1.4-0.5-3.4-2-0.4 0.3-1.6-0.7-0.6-0.4-0.2-0.3-0.1-0.5-0.2-0.5-0.4-0.2-0.9-0.2-7.5-4.3-2.8-1.2-6.6-2.9-1-0.6-1.4-1.3-0.7-1-0.7-2-0.6-0.9-3.6-3.8-1.4-2-0.9-1.9-0.6-2.8-0.1-1.1-0.4-1.2-0.1-0.6 0.3-0.3 0.8 0 0.2-0.3-0.1-0.3 0-4.7-0.1-1.2-1-3.4 0.2-1.5 0.1 0 9.8-0.1 1.3 0.2 0.3 0.5-0.2 0.5 0 0.5 1 0.1 11 0.1 2.5-0.4 2.1-1.1 1-2.1-0.1-0.5-0.4-1.5 0.6-0.6 1.2-0.4 2.2-0.7-0.2 0.9 3.9-0.1-0.9 3.7 1.4 0.3 1.1 1.5 1 1.9 1 1.5 1.6 1.3 1.5 0.8 1.7 0.3 2.2-0.1-1.2-1.4-0.5-1 0.1-1.1 0.9-1.4-2.7-1.6-0.4-0.5-0.3-11.2-2 0.1-0.5-0.4-0.3-1 0-0.8 0.1-0.9 0.3-0.9 0.3-0.4 0.3-1-1-2.2-2-3.3-0.1-0.1-0.2-0.3-0.8-1-1.3 1.4-0.3 0.6 0.3 1 0.6 0.6 0.7 0.6 0 0.3-0.5 0.4-1.5 0.8-1 0.9 0.9 1.2 0.7 0.4 0.6 0.8 0.3 0.8-0.2 0.8 0.3 0.3 0.3 0.2-0.7 0.5-0.8 1.5-0.6 0.4 0 0.1-0.8 0-0.7-0.3-0.7-0.5-0.7-0.3-1.7-0.3-0.7-0.3-0.9-0.6-0.2-0.4-0.1-0.3 0-0.4 0-1.1-0.3 0-1.1-0.9-0.9-0.2-1-0.1-0.7-0.3-0.7-0.4-0.7-0.7-0.6-0.9 0-0.4 1.9-4.5 0.5-1.3-0.1-0.8-0.7-0.4-1.4-0.2-0.9 0.2-0.7 0.6-1.1 1.6-0.7 0.8-0.4 0.3-0.2 0.1-0.6 0.2-1 0.1-0.4-0.2-0.8-0.3 0.4-1.3 8.6-12.6 0-0.9-0.5-1.1-1.5-1.9-0.4-1.9 0.9-7 2.2-1.1 0.9 0 1 0.6 0.3 0.5 0.6 1 0.5 0.6 0.8 0.5 0.5 0.3 0.6 0.2 0.9 0 1.5 0 2.7-0.4 1.5 0 3.4 0.9 1 0.1 0.2 0.5 0.2 1.1 0.1 0.5 0.5 0.7 0.5 0.4 0.5 0.3 0.6 0.6 0.3 0.6 0.2 0.7 0.4 1.3 0.1 2.1 0.1 0.6 0.3 0.5 0.4 0.6 0.5 0.4 0.5-0.5 0.4-0.4 0.1 0 0.4-0.1 0.4 0.1 1.1 0.4 0.7 0.8 0.9 0.6 0.6 0.1 0.3-0.2 0.1 0 0.2-0.4 0.3-0.3 1.2-0.3 0.1-0.2 0.7-0.2 0.6-0.2 0-0.1 0.4-0.6 0.2-1.4 0.2-0.5 0.7-0.4 1.8-0.7 0.9-0.4 1.1-0.8 2.3-2.8 0.1 0.1 0.4-0.2 0.4-0.2 0.1 0 0.1-0.1 0.1-0.3 0.1-0.2 0.2-0.1 0.4 0 1.1 0.3 0.5 0z" id="PH12" name="Soccsksargen">
  </path>
 </g>
 <g id="points">
  <circle class="5.479040784343548|117.43806399941874" cx="266.9" cy="910.2" id="0">
  </circle>
  <circle class="12.065710738147937|122.26944421015901" cx="525.9" cy="552.7" id="1">
  </circle>
  <circle class="20.299048180403425|126.13454837875122" cx="733.1" cy="92.6" id="2">
  </circle>
 </g>
 <g id="label_points">
  <circle class="Davao" cx="734.6" cy="798.5" id="PH11">
  </circle>
  <circle class="Caraga" cx="710.9" cy="737.7" id="PH13">
  </circle>
  <circle class="Northern Mindanao" cx="669.7" cy="763.8" id="PH10">
  </circle>
  <circle class="Autonomous Region in Muslim Mindanao" cx="631.6" cy="829.4" id="PH14">
  </circle>
  <circle class="Zamboanga Peninsula" cx="578" cy="772.9" id="PH09">
  </circle>
  <circle class="Mimaropa" cx="321.1" cy="693" id="PH41">
  </circle>
  <circle class="Calabarzon" cx="480.5" cy="436.2" id="PH40">
  </circle>
  <circle class="Eastern Visayas" cx="676.5" cy="551.8" id="PH08">
  </circle>
  <circle class="Bicol" cx="583.3" cy="470.8" id="PH05">
  </circle>
  <circle class="Central Luzon" cx="447.8" cy="372.4" id="PH03">
  </circle>
  <circle class="Cagayan Valley" cx="512.2" cy="280" id="PH02">
  </circle>
  <circle class="National Capital Region" cx="459.8" cy="411.7" id="PH00">
  </circle>
  <circle class="Cordillera Administrative Region" cx="463.2" cy="251" id="PH15">
  </circle>
  <circle class="Ilocos" cx="436.6" cy="277.1" id="PH01">
  </circle>
  <circle class="Central Visayas" cx="612.3" cy="638" id="PH07">
  </circle>
  <circle class="Western Visayas" cx="535.1" cy="601.7" id="PH06">
  </circle>
  <circle class="Soccsksargen" cx="662.6" cy="866.9" id="PH12">
  </circle>
 </g>
</svg>